<svg width="25" height="25" viewBox="0 0 25 25" fill="none" xmlns="http://www.w3.org/2000/svg">
<path d="M23.0238 9.05437C23.0238 11.0638 23.0238 13.0733 23.0238 15.0828C23.0238 15.4321 23.0238 15.4315 23.3629 15.4328C23.4598 15.4328 23.5567 15.4289 23.653 15.4328C23.8604 15.449 23.9909 15.5622 23.9935 15.7705C24.0025 16.3599 24.0019 16.9493 23.9935 17.538C23.9935 17.7444 23.8642 17.8615 23.6569 17.8809C23.569 17.8887 23.4799 17.8848 23.3907 17.8848H16.1985C15.9058 17.8848 15.9052 17.8848 16.0395 18.1539C16.7777 19.6251 17.5162 21.0963 18.2548 22.5675C18.5067 23.0715 18.3678 23.6026 17.9266 23.8614C17.4401 24.1467 16.8555 23.9759 16.5893 23.4571C16.1035 22.5093 15.6261 21.5569 15.1467 20.6059C14.7288 19.7771 14.3069 18.9497 13.9005 18.1164C13.8185 17.9495 13.7229 17.8802 13.531 17.8835C12.8449 17.8951 12.1586 17.8951 11.4721 17.8835C11.2822 17.8802 11.1853 17.9482 11.1013 18.1145C10.2175 19.8828 9.32904 21.6488 8.43579 23.4124C8.17738 23.9248 7.66056 24.1286 7.18379 23.9177C6.66697 23.6913 6.47316 23.1239 6.73157 22.5953C7.23418 21.5835 7.74454 20.5755 8.25167 19.5662L8.95778 18.1597C9.09345 17.8887 9.0928 17.888 8.77883 17.888H1.56205C1.08011 17.888 1 17.8078 1 17.3271C1 16.8464 1 16.3566 1 15.874C1 15.5538 1.11952 15.4393 1.43866 15.4328C1.97551 15.4218 1.97551 15.4218 1.97551 14.8926V3.10166C1.97205 3.00499 1.97443 2.90821 1.98261 2.81182C2.01104 2.57892 2.14606 2.46182 2.3909 2.45535C2.57631 2.45082 2.76237 2.45535 2.94778 2.45535H11.2331C11.5619 2.45535 11.5619 2.45535 11.5626 2.12216C11.5626 1.8802 11.558 1.63823 11.5626 1.39627C11.5697 1.13748 11.6918 1.00809 11.9502 1.00485C12.3137 0.998383 12.6772 0.998383 13.0407 1.00485C13.2991 1.00938 13.4283 1.13424 13.4328 1.39303C13.4373 1.65182 13.4328 1.89313 13.4328 2.14351C13.4328 2.45535 13.4328 2.45599 13.7558 2.45599H22.4772C22.9062 2.45599 23.0167 2.56662 23.0173 3.00332C23.0225 5.02099 23.0246 7.038 23.0238 9.05437ZM12.4883 15.4328H21.9352C22.2776 15.4328 22.2782 15.4328 22.2782 15.086V3.51248C22.2782 3.16636 22.2783 3.16636 21.9352 3.16636H3.06794C2.72554 3.16636 2.7249 3.16636 2.7249 3.51248V15.0873C2.7249 15.4334 2.7249 15.4341 3.06794 15.4341L12.4883 15.4328ZM12.5219 16.1444H2.10471C2.03171 16.1444 1.95935 16.1444 1.88635 16.1444C1.76425 16.1399 1.70934 16.1949 1.71192 16.3178C1.7158 16.4873 1.71192 16.6568 1.71192 16.8263C1.71192 17.1757 1.71193 17.1757 2.07241 17.1757H22.5922C23.288 17.1757 23.288 17.1757 23.2873 16.4822C23.2873 16.1451 23.2873 16.1444 22.9385 16.1444H12.5219ZM10.1245 17.888C9.95396 17.8453 9.87514 17.9611 9.80149 18.1119C9.01635 19.684 8.22777 21.2546 7.43574 22.8237C7.41054 22.8742 7.38664 22.9253 7.36532 22.977C7.31558 23.0987 7.37243 23.1795 7.47256 23.2358C7.5727 23.2921 7.66056 23.2513 7.72516 23.1711C7.76316 23.119 7.79564 23.0631 7.82207 23.0042C8.64037 21.3777 9.46018 19.7513 10.2815 18.1248C10.4004 17.8887 10.3984 17.888 10.1245 17.888ZM14.8825 17.888C14.6028 17.888 14.6002 17.888 14.7152 18.1177C15.3612 19.4064 16.0085 20.6948 16.6572 21.9826C16.8458 22.3566 17.0351 22.7299 17.2289 23.1012C17.2883 23.2151 17.3762 23.3076 17.5196 23.239C17.663 23.1705 17.6766 23.0488 17.6088 22.9156C17.5978 22.8942 17.5874 22.8722 17.5771 22.8509C16.7782 21.2602 15.9799 19.6691 15.1823 18.0776C15.1106 17.9339 15.0227 17.8583 14.8825 17.888ZM12.7254 2.11116V2.01865C12.7254 1.85949 12.7616 1.70099 12.4961 1.70422C12.2306 1.70746 12.2777 1.87179 12.2751 2.0277C12.2784 2.08351 12.2784 2.13946 12.2751 2.19527C12.2435 2.41782 12.3527 2.47087 12.5536 2.45405C12.8385 2.43464 12.677 2.21662 12.7254 2.11116Z" fill="#1240C0" stroke="#1240C0" stroke-width="0.25"/>
<path d="M22.0154 10.1266C22.0154 10.4957 22.0195 10.8646 22.0154 11.233C22.0113 11.5382 21.8624 11.7085 21.6167 11.7066C21.371 11.7046 21.2282 11.5349 21.2269 11.2251C21.2232 10.4871 21.2232 9.74932 21.2269 9.01175C21.2269 8.71379 21.3874 8.53093 21.6256 8.53422C21.8637 8.53751 22.0127 8.7184 22.0161 9.02031C22.0188 9.38931 22.0154 9.75765 22.0154 10.1266Z" fill="#1240C0"/>
</svg>
