<svg width="24" height="24" viewBox="0 0 24 24" fill="none" xmlns="http://www.w3.org/2000/svg">
<path fill-rule="evenodd" clip-rule="evenodd" d="M5.46967 5.46966C5.76256 5.17677 6.23744 5.17677 6.53033 5.46966L18.53 17.4693C18.8229 17.7622 18.8229 18.2371 18.53 18.53C18.2371 18.8229 17.7622 18.8229 17.4693 18.53L5.46967 6.53032C5.17678 6.23743 5.17678 5.76255 5.46967 5.46966Z" fill="#C0C0C0"/>
<path fill-rule="evenodd" clip-rule="evenodd" d="M18.5303 5.47003C18.8232 5.76292 18.8232 6.23779 18.5303 6.53069L6.53068 18.5303C6.23779 18.8232 5.76292 18.8232 5.47002 18.5303C5.17713 18.2374 5.17713 17.7626 5.47002 17.4697L17.4697 5.47003C17.7626 5.17713 18.2374 5.17713 18.5303 5.47003Z" fill="#C0C0C0"/>
</svg>
