<svg width="18" height="18" viewBox="0 0 18 18" fill="none" xmlns="http://www.w3.org/2000/svg">
<path fill-rule="evenodd" clip-rule="evenodd" d="M3.39509 5.00154L3.99796 14.8856C3.99797 14.8857 3.99796 14.8855 3.99796 14.8856C4.04472 15.6418 4.68486 16.2501 5.48341 16.2501H12.1937C12.9752 16.2501 13.609 15.6669 13.6776 14.9294C13.6776 14.9292 13.6775 14.9296 13.6776 14.9294L14.5861 5.00007C12.9238 4.89378 10.7086 4.7771 9.00204 4.7771C7.28763 4.7771 5.05985 4.89486 3.39509 5.00154ZM16.0832 5.10244C16.2451 5.11423 16.3876 5.12487 16.5078 5.13396C16.6468 5.1445 16.7559 5.15297 16.83 5.1588L16.9424 5.16773C17.3553 5.20126 17.7176 4.89378 17.7511 4.48093C17.7846 4.06807 17.4771 3.70621 17.0641 3.67268L16.9476 3.66341C16.8722 3.65748 16.7617 3.6489 16.6211 3.63825C16.3399 3.61695 15.938 3.5874 15.4544 3.55429C13.7622 3.43842 11.0434 3.2771 9.00204 3.2771C6.96066 3.2771 4.24187 3.43842 2.54968 3.55429C2.06611 3.5874 1.66423 3.61695 1.38302 3.63825C1.2424 3.6489 1.13192 3.65748 1.05646 3.66341L0.940514 3.67263C0.527588 3.70616 0.219452 4.06807 0.252985 4.48093C0.286518 4.89378 0.648441 5.20128 1.06136 5.16776M1.06136 5.16776L1.17409 5.1588C1.24821 5.15297 1.35723 5.1445 1.49631 5.13396C1.61085 5.12529 1.74575 5.11522 1.8983 5.10409L2.50052 14.9774C2.59721 16.5451 3.91264 17.7501 5.48341 17.7501H12.1937C13.7295 17.7501 15.0299 16.5971 15.1715 15.067L16.0832 5.10244" fill="#A52A0E"/>
<path fill-rule="evenodd" clip-rule="evenodd" d="M7.60187 1.75C7.46377 1.75 7.35182 1.86193 7.35182 2V3.59459C7.35182 4.00881 7.01598 4.34459 6.60169 4.34459C6.18741 4.34459 5.85156 4.00881 5.85156 3.59459V2C5.85156 1.0335 6.6352 0.25 7.60187 0.25H10.4024C11.369 0.25 12.1527 1.0335 12.1527 2V3.59459C12.1527 4.00881 11.8168 4.34459 11.4025 4.34459C10.9882 4.34459 10.6524 4.00881 10.6524 3.59459V2C10.6524 1.86193 10.5404 1.75 10.4024 1.75H7.60187Z" fill="#A52A0E"/>
<path fill-rule="evenodd" clip-rule="evenodd" d="M5.05151 3.59473C5.05151 3.18051 5.38736 2.84473 5.80164 2.84473L7.40192 2.84473C7.81621 2.84473 8.15205 3.18051 8.15205 3.59473C8.15205 4.00894 7.81621 4.34473 7.40192 4.34473L5.80164 4.34473C5.38736 4.34473 5.05151 4.00894 5.05151 3.59473Z" fill="#A52A0E"/>
<path fill-rule="evenodd" clip-rule="evenodd" d="M9.85205 3.59473C9.85205 3.18051 10.1879 2.84473 10.6022 2.84473H12.2025C12.6167 2.84473 12.9526 3.18051 12.9526 3.59473C12.9526 4.00894 12.6167 4.34473 12.2025 4.34473H10.6022C10.1879 4.34473 9.85205 4.00894 9.85205 3.59473Z" fill="#A52A0E"/>
<path fill-rule="evenodd" clip-rule="evenodd" d="M9.00207 7.16895C9.41635 7.16895 9.7522 7.50473 9.7522 7.91895V13.1081C9.7522 13.5223 9.41635 13.8581 9.00207 13.8581C8.58778 13.8581 8.25194 13.5223 8.25194 13.1081V7.91895C8.25194 7.50473 8.58778 7.16895 9.00207 7.16895Z" fill="#A52A0E"/>
<path fill-rule="evenodd" clip-rule="evenodd" d="M5.80163 8.03369C6.21591 8.03369 6.55176 8.36948 6.55176 8.78369L6.55176 12.2432C6.55176 12.6574 6.21591 12.9932 5.80163 12.9932C5.38734 12.9932 5.0515 12.6574 5.0515 12.2432L5.0515 8.78369C5.0515 8.36948 5.38734 8.03369 5.80163 8.03369Z" fill="#A52A0E"/>
<path fill-rule="evenodd" clip-rule="evenodd" d="M12.2025 8.03369C12.6168 8.03369 12.9526 8.36948 12.9526 8.78369L12.9526 12.2432C12.9526 12.6574 12.6168 12.9932 12.2025 12.9932C11.7882 12.9932 11.4524 12.6574 11.4524 12.2432L11.4524 8.78369C11.4524 8.36948 11.7882 8.03369 12.2025 8.03369Z" fill="#A52A0E"/>
</svg>
