<svg width="24" height="24" viewBox="0 0 24 24" fill="none" xmlns="http://www.w3.org/2000/svg">
<g clip-path="url(#clip0_508_19743)">
<mask id="path-1-inside-1_508_19743" fill="white">
<path d="M12 0.75C9.77497 0.75 7.59989 1.4098 5.74984 2.64597C3.89979 3.88213 2.45785 5.63914 1.60636 7.69481C0.754875 9.75048 0.532087 12.0125 0.966171 14.1948C1.40025 16.3771 2.47171 18.3816 4.04505 19.955C5.61839 21.5283 7.62295 22.5998 9.80524 23.0338C11.9875 23.4679 14.2495 23.2451 16.3052 22.3936C18.3609 21.5422 20.1179 20.1002 21.354 18.2502C22.5902 16.4001 23.25 14.225 23.25 12C23.2466 9.01735 22.0603 6.15783 19.9512 4.04878C17.8422 1.93972 14.9827 0.753375 12 0.75V0.75ZM12 21.75C10.4513 21.75 8.82975 19.7535 8.025 16.5H15.975C15.1703 19.7535 13.5488 21.75 12 21.75ZM7.7205 15C7.42651 13.0108 7.42651 10.9892 7.7205 9H16.2795C16.4283 9.99304 16.502 10.9959 16.5 12C16.502 13.0041 16.4283 14.007 16.2795 15H7.7205ZM2.25001 12C2.25055 10.9812 2.41152 9.96876 2.727 9H6.21451C5.9285 10.9898 5.9285 13.0102 6.21451 15H2.727C2.41152 14.0312 2.25055 13.0188 2.25001 12V12ZM12 2.25C13.5488 2.25 15.1703 4.2465 15.975 7.5H8.025C8.82975 4.2465 10.4513 2.25 12 2.25ZM17.7855 9H21.273C21.9088 10.9495 21.9088 13.0505 21.273 15H17.7855C17.9277 14.0063 17.9994 13.0038 18 12C17.9994 10.9962 17.9277 9.99368 17.7855 9V9ZM20.6408 7.5H17.5155C17.1817 5.86876 16.5273 4.32006 15.5903 2.94375C17.7639 3.8106 19.5554 5.42683 20.6408 7.5V7.5ZM8.40976 2.94375C7.47268 4.32006 6.81827 5.86876 6.4845 7.5H3.35926C4.4446 5.42683 6.23615 3.8106 8.40976 2.94375V2.94375ZM3.35926 16.5H6.4845C6.81827 18.1312 7.47268 19.6799 8.40976 21.0563C6.23615 20.1894 4.4446 18.5732 3.35926 16.5V16.5ZM15.5903 21.0563C16.5273 19.6799 17.1817 18.1312 17.5155 16.5H20.6408C19.5554 18.5732 17.7639 20.1894 15.5903 21.0563V21.0563Z"/>
</mask>
<path d="M12 0.75C9.77497 0.75 7.59989 1.4098 5.74984 2.64597C3.89979 3.88213 2.45785 5.63914 1.60636 7.69481C0.754875 9.75048 0.532087 12.0125 0.966171 14.1948C1.40025 16.3771 2.47171 18.3816 4.04505 19.955C5.61839 21.5283 7.62295 22.5998 9.80524 23.0338C11.9875 23.4679 14.2495 23.2451 16.3052 22.3936C18.3609 21.5422 20.1179 20.1002 21.354 18.2502C22.5902 16.4001 23.25 14.225 23.25 12C23.2466 9.01735 22.0603 6.15783 19.9512 4.04878C17.8422 1.93972 14.9827 0.753375 12 0.75V0.75ZM12 21.75C10.4513 21.75 8.82975 19.7535 8.025 16.5H15.975C15.1703 19.7535 13.5488 21.75 12 21.75ZM7.7205 15C7.42651 13.0108 7.42651 10.9892 7.7205 9H16.2795C16.4283 9.99304 16.502 10.9959 16.5 12C16.502 13.0041 16.4283 14.007 16.2795 15H7.7205ZM2.25001 12C2.25055 10.9812 2.41152 9.96876 2.727 9H6.21451C5.9285 10.9898 5.9285 13.0102 6.21451 15H2.727C2.41152 14.0312 2.25055 13.0188 2.25001 12V12ZM12 2.25C13.5488 2.25 15.1703 4.2465 15.975 7.5H8.025C8.82975 4.2465 10.4513 2.25 12 2.25ZM17.7855 9H21.273C21.9088 10.9495 21.9088 13.0505 21.273 15H17.7855C17.9277 14.0063 17.9994 13.0038 18 12C17.9994 10.9962 17.9277 9.99368 17.7855 9V9ZM20.6408 7.5H17.5155C17.1817 5.86876 16.5273 4.32006 15.5903 2.94375C17.7639 3.8106 19.5554 5.42683 20.6408 7.5V7.5ZM8.40976 2.94375C7.47268 4.32006 6.81827 5.86876 6.4845 7.5H3.35926C4.4446 5.42683 6.23615 3.8106 8.40976 2.94375V2.94375ZM3.35926 16.5H6.4845C6.81827 18.1312 7.47268 19.6799 8.40976 21.0563C6.23615 20.1894 4.4446 18.5732 3.35926 16.5V16.5ZM15.5903 21.0563C16.5273 19.6799 17.1817 18.1312 17.5155 16.5H20.6408C19.5554 18.5732 17.7639 20.1894 15.5903 21.0563V21.0563Z" fill="#A52A0E"/>
<path d="M23.25 12H39.25V11.9909L39.25 11.9819L23.25 12ZM8.025 16.5V0.5H-12.4148L-7.50692 20.3418L8.025 16.5ZM15.975 16.5L31.5069 20.3418L36.4148 0.5H15.975V16.5ZM7.7205 15L-8.10755 17.3394L-6.08854 31H7.7205V15ZM7.7205 9V-7H-6.08854L-8.10755 6.66065L7.7205 9ZM16.2795 9L32.103 6.62978L30.0613 -7H16.2795V9ZM16.5 12L0.500036 11.9688L0.499975 12L0.500036 12.0312L16.5 12ZM16.2795 15V31H30.0613L32.103 17.3702L16.2795 15ZM2.72701 9V-7H-8.88951L-12.4866 4.04557L2.72701 9ZM6.21451 9L22.0517 11.2764L24.6787 -7H6.21451V9ZM6.21451 15V31H24.6787L22.0517 12.7236L6.21451 15ZM2.72701 15L-12.4866 19.9544L-8.88951 31H2.72701V15ZM15.975 7.5V23.5H36.4148L31.5069 3.6582L15.975 7.5ZM8.025 7.5L-7.50692 3.6582L-12.4148 23.5H8.025V7.5ZM21.273 9L36.4844 4.03876L32.8841 -7H21.273V9ZM21.273 15V31H32.8841L36.4844 19.9612L21.273 15ZM17.7855 15L1.94691 12.7331L-0.667586 31H17.7855V15ZM18 12L34 12.0095L34 12L34 11.9905L18 12ZM17.5155 7.5L1.84026 10.7073L4.45777 23.5H17.5155V7.5ZM15.5903 2.94375L21.5172 -11.918L-27.0811 -31.2994L2.36473 11.9485L15.5903 2.94375ZM6.4845 7.5V23.5H19.5422L22.1597 10.7073L6.4845 7.5ZM3.35926 7.5L-10.8158 0.0791358L-23.077 23.5H3.35926V7.5ZM6.4845 16.5L22.1597 13.2927L19.5422 0.5H6.4845V16.5ZM8.40976 21.0563L2.48278 35.918L51.0811 55.2994L21.6353 12.0515L8.40976 21.0563ZM17.5155 16.5V0.5H4.45777L1.84026 13.2927L17.5155 16.5ZM20.6408 16.5L34.8158 23.9209L47.077 0.5H20.6408V16.5ZM12 -15.25C6.61046 -15.25 1.34196 -13.6518 -3.13928 -10.6575L14.639 15.9495C13.8578 16.4714 12.9395 16.75 12 16.75V-15.25ZM-3.13928 -10.6575C-7.62052 -7.66328 -11.1132 -3.40741 -13.1757 1.57188L16.3884 13.8177C16.0289 14.6857 15.4201 15.4275 14.639 15.9495L-3.13928 -10.6575ZM-13.1757 1.57188C-15.2382 6.55116 -15.7778 12.0302 -14.7264 17.3162L16.6587 11.0733C16.842 11.9947 16.7479 12.9498 16.3884 13.8177L-13.1757 1.57188ZM-14.7264 17.3162C-13.6749 22.6022 -11.0796 27.4577 -7.26865 31.2687L15.3588 8.64124C16.0231 9.30554 16.4755 10.1519 16.6587 11.0733L-14.7264 17.3162ZM-7.26865 31.2687C-3.45767 35.0796 1.39781 37.675 6.68379 38.7264L12.9267 7.34127C13.8481 7.52455 14.6945 7.97694 15.3588 8.64124L-7.26865 31.2687ZM6.68379 38.7264C11.9698 39.7778 17.4488 39.2382 22.4281 37.1757L10.1823 7.61157C11.0502 7.25206 12.0053 7.15799 12.9267 7.34127L6.68379 38.7264ZM22.4281 37.1757C27.4074 35.1132 31.6633 31.6205 34.6576 27.1393L8.05052 9.36104C8.57246 8.57991 9.31431 7.97109 10.1823 7.61157L22.4281 37.1757ZM34.6576 27.1393C37.6518 22.6581 39.25 17.3895 39.25 12H7.25001C7.25001 11.0605 7.52859 10.1422 8.05052 9.36104L34.6576 27.1393ZM39.25 11.9819C39.2418 4.76206 36.3701 -2.15973 31.2649 -7.26493L8.63752 15.3625C7.75043 14.4754 7.25144 13.2726 7.25002 12.0181L39.25 11.9819ZM31.2649 -7.26493C26.1597 -12.3701 19.2379 -15.2418 12.0181 -15.25L11.9819 16.75C10.7274 16.7486 9.52462 16.2496 8.63752 15.3625L31.2649 -7.26493ZM12 5.75C18.3165 5.75 21.6675 9.62116 22.3967 10.5653C22.9422 11.2716 23.2306 11.842 23.3647 12.1408C23.5066 12.4568 23.5523 12.6395 23.5569 12.6582L-7.50692 20.3418C-6.72813 23.4904 -5.33732 27.0073 -2.92965 30.1249C-0.80139 32.8806 4.13475 37.75 12 37.75V5.75ZM8.025 32.5H15.975V0.5H8.025V32.5ZM0.443085 12.6582C0.447708 12.6395 0.493417 12.4568 0.635277 12.1408C0.769409 11.842 1.05783 11.2716 1.60335 10.5653C2.33248 9.62116 5.6835 5.75 12 5.75V37.75C19.8653 37.75 24.8014 32.8806 26.9297 30.1249C29.3373 27.0073 30.7281 23.4904 31.5069 20.3418L0.443085 12.6582ZM23.5486 12.6606C23.4838 12.2226 23.4838 11.7774 23.5486 11.3394L-8.10755 6.66065C-8.63081 10.201 -8.63081 13.799 -8.10755 17.3394L23.5486 12.6606ZM7.7205 25H16.2795V-7H7.7205V25ZM0.456039 11.3702C0.48572 11.5684 0.500427 11.7685 0.500036 11.9688L32.5 12.0312C32.5035 10.2233 32.3708 8.41772 32.103 6.62978L0.456039 11.3702ZM0.500036 12.0312C0.500427 12.2315 0.48572 12.4316 0.456039 12.6298L32.103 17.3702C32.3708 15.5823 32.5035 13.7767 32.5 11.9688L0.500036 12.0312ZM16.2795 -1H7.7205V31H16.2795V-1ZM18.25 12.0085C18.2497 12.6694 18.1452 13.3261 17.9406 13.9544L-12.4866 4.04557C-13.3222 6.61147 -13.7486 9.29294 -13.75 11.9915L18.25 12.0085ZM2.72701 25H6.21451V-7H2.72701V25ZM-9.62274 6.72364C-10.1257 10.2232 -10.1257 13.7768 -9.62274 17.2764L22.0517 12.7236C21.9828 12.2437 21.9828 11.7563 22.0517 11.2764L-9.62274 6.72364ZM6.21451 -1H2.72701V31H6.21451V-1ZM17.9406 10.0456C18.1452 10.6739 18.2497 11.3306 18.25 11.9915L-13.75 12.0085C-13.7486 14.7071 -13.3222 17.3885 -12.4866 19.9544L17.9406 10.0456ZM12 18.25C5.6835 18.25 2.33248 14.3788 1.60335 13.4347C1.05783 12.7284 0.769409 12.158 0.635277 11.8592C0.493417 11.5432 0.447708 11.3605 0.443085 11.3418L31.5069 3.6582C30.7281 0.50965 29.3373 -3.00734 26.9297 -6.12487C24.8014 -8.88059 19.8653 -13.75 12 -13.75V18.25ZM15.975 -8.5H8.025V23.5H15.975V-8.5ZM23.5569 11.3418C23.5523 11.3605 23.5066 11.5432 23.3647 11.8592C23.2306 12.158 22.9422 12.7284 22.3967 13.4347C21.6675 14.3788 18.3165 18.25 12 18.25V-13.75C4.13475 -13.75 -0.80139 -8.88059 -2.92965 -6.12487C-5.33732 -3.00734 -6.72813 0.50965 -7.50692 3.6582L23.5569 11.3418ZM17.7855 25H21.273V-7H17.7855V25ZM6.06163 13.9612C5.64596 12.6868 5.64596 11.3132 6.06163 10.0388L36.4844 19.9612C38.1717 14.7879 38.1717 9.21215 36.4844 4.03876L6.06163 13.9612ZM21.273 -1H17.7855V31H21.273V-1ZM33.6241 17.2669C33.8733 15.5255 33.999 13.7687 34 12.0095L2.00001 11.9905C1.99986 12.239 1.98212 12.4871 1.94691 12.7331L33.6241 17.2669ZM34 11.9905C33.999 10.2313 33.8733 8.47447 33.6241 6.73306L1.94691 11.2669C1.98212 11.5129 1.99986 11.761 2.00001 12.0095L34 11.9905ZM20.6408 -8.5H17.5155V23.5H20.6408V-8.5ZM33.1907 4.29269C32.4323 0.585849 30.9452 -2.93346 28.8158 -6.061L2.36473 11.9485C2.10946 11.5736 1.93119 11.1517 1.84026 10.7073L33.1907 4.29269ZM9.66328 17.8055C8.28714 17.2567 7.15289 16.2334 6.46575 14.9209L34.8158 0.0791358C31.9579 -5.37976 27.2406 -9.63546 21.5172 -11.918L9.66328 17.8055ZM-4.81577 -6.061C-6.94519 -2.93346 -8.43228 0.585845 -9.19074 4.29269L22.1597 10.7073C22.0688 11.1517 21.8906 11.5736 21.6353 11.9485L-4.81577 -6.061ZM6.4845 -8.5H3.35926V23.5H6.4845V-8.5ZM17.5343 14.9209C16.8471 16.2334 15.7129 17.2567 14.3367 17.8055L2.48278 -11.918C-3.24058 -9.63546 -7.95792 -5.37976 -10.8158 0.0791358L17.5343 14.9209ZM3.35926 32.5H6.4845V0.5H3.35926V32.5ZM-9.19074 19.7073C-8.43228 23.4142 -6.94519 26.9335 -4.81577 30.061L21.6353 12.0515C21.8906 12.4264 22.0688 12.8483 22.1597 13.2927L-9.19074 19.7073ZM14.3367 6.19452C15.7129 6.74334 16.8471 7.76659 17.5343 9.07914L-10.8158 23.9209C-7.95792 29.3798 -3.24058 33.6355 2.48278 35.918L14.3367 6.19452ZM28.8158 30.061C30.9452 26.9335 32.4323 23.4141 33.1907 19.7073L1.84026 13.2927C1.93119 12.8483 2.10946 12.4264 2.36473 12.0515L28.8158 30.061ZM17.5155 32.5H20.6408V0.5H17.5155V32.5ZM6.46575 9.07914C7.15289 7.76659 8.28714 6.74334 9.66328 6.19452L21.5172 35.918C27.2406 33.6355 31.9579 29.3798 34.8158 23.9209L6.46575 9.07914Z" fill="#A52A0E" mask="url(#path-1-inside-1_508_19743)"/>
</g>
<defs>
<clipPath id="clip0_508_19743">
<rect width="24" height="24" fill="white"/>
</clipPath>
</defs>
</svg>
