<svg width="32" height="86" viewBox="0 0 32 86" fill="none" xmlns="http://www.w3.org/2000/svg">
<path d="M0 17C0 15.8954 0.895431 15 2 15H30C31.1046 15 32 15.8954 32 17V68.0443C32 69.6842 30.135 70.6272 28.8144 69.655L17.1856 61.095C16.4804 60.5759 15.5196 60.5759 14.8144 61.095L3.18563 69.655C1.86499 70.6272 0 69.6842 0 68.0443V17Z" fill="#D5850D"/>
<path d="M25.3288 24.0992L23.9269 24.0991V22.6479C23.9269 22.3156 23.6838 22.0333 23.3552 21.9842C23.2978 21.9755 21.932 21.7771 20.2874 22.0764C18.4539 22.41 16.9917 23.2327 16 24.4764C15.0082 23.2327 13.546 22.41 11.7126 22.0764C10.0679 21.7772 8.70208 21.9755 8.64477 21.9842C8.31615 22.0334 8.07306 22.3157 8.07306 22.6479V24.0991H6.67111C6.30054 24.0991 6 24.3996 6 24.7703V37.417C6 37.6343 6.10518 37.8382 6.28236 37.9641C6.45953 38.09 6.68666 38.1223 6.89185 38.0508C6.94222 38.0334 11.9714 36.317 15.7214 38.0276C15.8984 38.1083 16.1016 38.1083 16.2786 38.0276C20.0181 36.3219 25.058 38.0335 25.1081 38.0508C25.1801 38.0759 25.2545 38.0882 25.3288 38.0882C25.4663 38.0882 25.6025 38.0459 25.7176 37.9642C25.8948 37.8382 26 37.6344 26 37.4171V24.7703C25.9999 24.3997 25.6995 24.0992 25.3288 24.0992ZM7.34229 36.5191V25.4414H8.07306V34.3791C8.07306 34.5741 8.15838 34.7593 8.30592 34.8868C8.45346 35.0143 8.64969 35.0715 8.84255 35.043C8.87959 35.0376 11.7951 34.6373 13.9252 36.0988C11.3013 35.6501 8.67521 36.1691 7.34229 36.5191ZM15.3289 35.4935C14.3907 34.6459 13.1687 34.0727 11.7126 33.8078C11.0118 33.6802 10.3617 33.643 9.84187 33.643C9.68753 33.643 9.54463 33.6463 9.41541 33.6515V23.2641H9.41534C10.7052 23.206 13.8431 23.3439 15.3289 25.8626V35.4935ZM16.6711 25.8627C18.1515 23.3547 21.2943 23.2105 22.5846 23.2658V33.6515C22.0201 33.6288 21.196 33.6424 20.2874 33.8078C18.8313 34.0727 17.6093 34.6458 16.6711 35.4935V25.8627ZM18.0725 36.0992C20.2028 34.6368 23.1199 35.0375 23.1563 35.0429C23.3496 35.0719 23.5457 35.0151 23.6937 34.8877C23.8418 34.7601 23.9269 34.5745 23.9269 34.3791V25.4414H24.6576V36.5191C23.3243 36.169 20.6971 35.6498 18.0725 36.0992Z" fill="white"/>
<g clip-path="url(#clip0_204_2351)">
<circle cx="11.3332" cy="50" r="1.16667" fill="white"/>
<circle cx="16.0002" cy="50" r="1.16667" fill="white"/>
<ellipse cx="20.6667" cy="50" rx="1.16667" ry="1.16667" fill="white"/>
</g>
<defs>
<clipPath id="clip0_204_2351">
<rect width="14" height="14" fill="white" transform="translate(9 43)"/>
</clipPath>
</defs>
</svg>
