<svg width="24" height="25" viewBox="0 0 24 25" fill="none" xmlns="http://www.w3.org/2000/svg">
<path d="M8.5 4.33325H6.5C6.2235 4.33325 6 4.57165 6 4.86659V19.7999C6 20.0949 6.2235 20.3333 6.5 20.3333H8.5C8.7765 20.3333 9 20.0949 9 19.7999V4.86659C9 4.57165 8.7765 4.33325 8.5 4.33325Z" fill="#A52A0E"/>
<path d="M17.5 4.33325H15.5C15.2235 4.33325 15 4.57165 15 4.86659V19.7999C15 20.0949 15.2235 20.3333 15.5 20.3333H17.5C17.7765 20.3333 18 20.0949 18 19.7999V4.86659C18 4.57165 17.7765 4.33325 17.5 4.33325Z" fill="#A52A0E"/>
</svg>
