<svg width="23" height="23" viewBox="0 0 23 23" fill="none" xmlns="http://www.w3.org/2000/svg">
<path d="M23 10.5746V12.4584C22.9409 12.8718 22.9094 13.2915 22.8177 13.6977C21.7989 18.2101 19.0811 21.1723 14.6644 22.5843C13.9431 22.814 13.1925 22.9101 12.4424 23H10.5557C10.5126 22.9886 10.4688 22.9796 10.4246 22.973C8.66511 22.814 7.00745 22.3101 5.52928 21.3534C1.59051 18.8112 -0.266338 15.1893 0.0307578 10.5033C0.133729 8.86731 0.626075 7.33472 1.43352 5.91055C3.90989 1.53861 8.74164 -0.769834 13.6741 0.231859C18.2526 1.16389 21.214 3.98582 22.6072 8.44091C22.8239 9.13473 22.9128 9.85552 23 10.5746ZM11.8927 1.41389C11.4425 1.35771 11.0031 1.424 10.5636 1.45153C10.1159 1.4849 9.67176 1.55518 9.23567 1.66164C6.72233 2.23822 4.52391 3.75032 3.08875 5.88956C1.6536 8.02881 1.08978 10.6341 1.5123 13.1741C1.75819 14.7014 2.36267 16.1489 3.27631 17.3983C3.43611 17.6185 3.43161 17.6185 3.54977 17.3764C4.58773 15.2509 6.21032 13.7591 8.41753 12.9011C8.48449 12.8752 8.58634 12.8775 8.60153 12.7954C8.61672 12.7134 8.51994 12.6831 8.46592 12.6336C7.10592 11.4443 6.52411 9.94541 6.84315 8.17574C7.17626 6.32965 8.29149 5.0656 10.0814 4.50099C11.8533 3.93919 13.4642 4.34593 14.8107 5.63021C16.8296 7.55607 16.6833 10.8651 14.5254 12.6376C14.3268 12.8011 14.3291 12.8061 14.5873 12.905C16.7852 13.7619 18.4033 15.2481 19.4416 17.3634C19.5665 17.6191 19.5631 17.6208 19.7229 17.3921C21.0801 15.482 21.7002 13.3606 21.6012 11.0246C21.5269 9.26732 21.0284 7.63472 20.0746 6.1628C18.1581 3.20154 15.4055 1.64591 11.8927 1.41389ZM11.8656 21.5949C11.9928 21.5949 12.12 21.6 12.2466 21.5949C12.3732 21.5899 12.4998 21.5725 12.6258 21.5584C14.8102 21.3146 16.7036 20.4348 18.3303 18.9663C18.4592 18.8505 18.4952 18.75 18.4338 18.5797C17.2246 15.241 13.6668 13.1864 10.1849 13.8718C7.47223 14.405 5.60525 15.9915 4.57217 18.5556C4.49789 18.7393 4.53221 18.8533 4.67851 18.9797C5.01531 19.2764 5.36727 19.5554 5.73298 19.8157C7.57632 21.1011 9.62899 21.6708 11.8668 21.5949H11.8656ZM11.4932 5.66167C9.58454 5.71505 8.16489 7.15719 8.15701 9.01507C8.15597 9.4524 8.24153 9.88563 8.40878 10.2898C8.57602 10.694 8.82165 11.0612 9.13153 11.3703C9.44142 11.6794 9.80945 11.9243 10.2144 12.0909C10.6195 12.2574 11.0534 12.3424 11.4915 12.3409C13.3646 12.3263 14.8344 10.8982 14.8349 9.00552C14.8355 7.11281 13.3719 5.70662 11.4943 5.66167H11.4932Z" fill="#1240C0"/>
</svg>
