<svg width="30" height="26" viewBox="0 0 30 26" fill="none" xmlns="http://www.w3.org/2000/svg">
<path d="M27.5161 17.3437C27.394 17.483 27.2433 17.5908 27.076 17.6585C24.2674 18.9512 21.4594 20.2462 18.6519 21.5436C18.3231 21.6966 18.0575 21.6641 17.788 21.4223C17.1567 20.8647 16.5113 20.3247 15.8791 19.7683C15.7186 19.6275 15.6704 19.6513 15.6408 19.8667C15.4883 20.9942 15.3246 22.1195 15.1665 23.2462C15.154 23.3348 15.1446 23.4246 15.1253 23.5123C15.0148 24.0155 14.5793 24.2025 14.1984 23.8941C13.7116 23.5002 13.2404 23.086 12.7649 22.68C9.24612 19.6857 5.72684 16.6923 2.20701 13.6997C1.94447 13.4766 1.83844 13.2401 1.891 12.8702C2.42061 9.16382 2.94288 5.4564 3.4578 1.74796C3.46638 1.66775 3.4797 1.58811 3.49768 1.5095C3.51736 1.42415 3.5559 1.34465 3.61012 1.27758C3.66434 1.21051 3.73268 1.1578 3.80949 1.1238C3.8863 1.08981 3.96937 1.07551 4.05183 1.08208C4.13429 1.08866 4.21377 1.11593 4.2837 1.16162C4.47129 1.29601 4.65111 1.44201 4.82223 1.59887C6.13161 2.7106 7.44271 3.81917 8.74612 4.93686C8.91445 5.08149 9.04528 5.09102 9.24548 4.99947C11.3045 4.04302 13.3671 3.1068 15.4214 2.1388C15.8473 1.93821 16.147 1.99726 16.4982 2.3015C20.0771 5.40071 23.6626 8.49089 27.2546 11.572C27.4694 11.7565 27.6822 11.9448 27.8993 12.1261C28.0366 12.2308 28.1386 12.379 28.1908 12.5498L28.1311 12.9751C27.8827 13.2408 27.5482 13.3339 27.2413 13.4818C26.8127 13.6875 26.8011 13.624 27.1731 13.9678C27.4283 14.2021 27.7593 14.3628 27.8839 14.7318L27.8241 15.1578C27.5602 15.4654 27.181 15.5434 26.8481 15.7122C26.5369 15.8724 26.5403 15.8525 26.7881 16.0845C27.066 16.3444 27.4256 16.5206 27.5782 16.9146L27.5161 17.3437ZM14.1737 22.3835C14.194 22.285 14.2057 22.2425 14.2118 22.1992C14.6662 18.9617 15.122 15.7247 15.5792 12.4881C15.6073 12.2881 15.5234 12.1954 15.3996 12.0904C11.8234 9.04818 8.24674 6.00502 4.66957 2.96088C4.60599 2.90641 4.54548 2.80274 4.46284 2.82921C4.35597 2.86384 4.38673 2.99664 4.37382 3.08865C3.92851 6.24624 3.48315 9.40268 3.03773 12.558C3.00461 12.794 3.06321 12.9341 3.23523 13.0799C6.37131 15.7408 9.50473 18.4055 12.6355 21.0738C13.1363 21.501 13.6392 21.9271 14.1737 22.3835ZM9.92945 5.9364C10.0398 6.03278 10.1159 6.09853 10.1923 6.16636C12.2583 7.92474 14.325 9.68209 16.3925 11.4384C16.6679 11.6708 16.7719 11.9356 16.7081 12.2985C16.6333 12.7489 16.5811 13.2032 16.5133 13.6546C16.4978 13.724 16.5021 13.7964 16.5256 13.8626C16.5491 13.9288 16.5907 13.9859 16.6452 14.0266C17.3711 14.6452 18.0928 15.2676 18.8103 15.8941C18.8608 15.9462 18.9265 15.9789 18.9971 15.9874C19.0676 15.9958 19.1393 15.9794 19.2009 15.9407C19.571 15.7582 19.948 15.5915 20.3219 15.4183C22.334 14.4915 24.3462 13.5645 26.3583 12.6373C26.6059 12.5231 26.6064 12.5198 26.3999 12.3413C25.9581 11.9597 25.5156 11.5788 25.0724 11.1984C22.0666 8.60884 19.0616 6.01801 16.0575 3.42592C15.8789 3.2717 15.737 3.2409 15.5189 3.35033C14.9025 3.65539 14.2729 3.93074 13.6493 4.21848L9.92945 5.9364ZM16.2405 15.6531C16.1138 15.9752 16.2579 16.1647 16.4872 16.3546C17.1477 16.9014 17.7969 17.4643 18.4384 18.0363C18.6091 18.1915 18.7545 18.2024 18.96 18.1096C20.5009 17.389 22.0477 16.6809 23.5901 15.9721C24.4136 15.5907 25.2448 15.2132 26.0699 14.8246C26.1338 14.7948 26.2965 14.8013 26.2032 14.6434C26.0087 14.3149 25.6657 14.2124 25.3241 14.3698C23.3202 15.2945 21.3138 16.2142 19.3142 17.1491C18.9517 17.3184 18.6671 17.2982 18.3641 17.0205C17.7958 16.4981 17.1991 16.0045 16.6105 15.5038C16.5228 15.4289 16.4409 15.2719 16.3271 15.3192C16.2134 15.3664 16.2722 15.5413 16.2405 15.6531ZM16.0826 17.5004C16.0333 17.4812 16.0065 17.4897 15.9815 17.5216C15.8532 17.6905 15.9029 18.2964 16.0597 18.4313C16.7626 19.0371 17.4694 19.6373 18.1669 20.2498C18.3187 20.384 18.4435 20.3906 18.6227 20.307C19.985 19.6702 21.351 19.0441 22.7166 18.4152C23.7306 17.9475 24.7442 17.479 25.7575 17.0098C25.822 16.9795 25.9531 16.987 25.9164 16.8513C25.8518 16.6254 25.3513 16.4069 25.14 16.5044C23.0883 17.4496 21.0341 18.3898 18.9871 19.3472C18.6266 19.5155 18.3488 19.4698 18.0587 19.2101C17.4505 18.6659 16.8255 18.141 16.2074 17.6077L16.0826 17.5004Z" fill="#757575"/>
<path d="M12.6209 17.5862C12.4665 17.5748 12.3501 17.4871 12.2368 17.391C9.79485 15.3274 7.35297 13.2635 4.91116 11.199C4.60689 10.9422 4.52579 10.6903 4.64923 10.4147C4.67879 10.3418 4.72284 10.2763 4.77841 10.2225C4.83398 10.1686 4.89977 10.1278 4.97132 10.1027C5.04287 10.0777 5.11852 10.0689 5.19314 10.0771C5.26776 10.0853 5.33962 10.1102 5.40385 10.1502C5.54751 10.2457 5.68391 10.3525 5.81188 10.4698C8.16816 12.4583 10.5244 14.4487 12.8806 16.4408C13.2323 16.7376 13.3168 16.9839 13.1697 17.2806C13.0531 17.5164 12.8664 17.6119 12.6209 17.5862Z" fill="#757575"/>
<path d="M5.59959 7.32183C5.73677 7.34838 5.86398 7.4139 5.96769 7.51142C7.87045 9.12922 9.77215 10.7485 11.6728 12.3692C11.9365 12.5938 12.0156 12.8545 11.9201 13.1039C11.7636 13.5102 11.3438 13.6009 10.9828 13.2964C10.0866 12.5376 9.19204 11.776 8.29922 11.0116C7.30625 10.167 6.31347 9.32102 5.32088 8.4737C5.23251 8.40396 5.15371 8.32168 5.08665 8.22911C5.02264 8.14329 4.98567 8.03815 4.98084 7.92817C4.97601 7.81819 5.00356 7.70878 5.05969 7.61501C5.11438 7.51686 5.19439 7.43702 5.29014 7.38502C5.38589 7.33303 5.49332 7.31109 5.59959 7.32183Z" fill="#757575"/>
<path d="M13.6283 14.2711C13.6015 14.4349 13.5197 14.5831 13.3994 14.686C13.2791 14.7888 13.1291 14.8387 12.9798 14.8255C12.6142 14.781 12.294 14.3547 12.3433 13.9795C12.3678 13.8158 12.4477 13.6668 12.5668 13.5629C12.6859 13.459 12.8352 13.408 12.9843 13.4202C13.3359 13.4665 13.6761 13.9161 13.6283 14.2711Z" fill="#757575"/>
<path d="M14.2248 6.28303C14.3753 6.29882 14.4919 6.38717 14.6035 6.47883C16.6654 8.22084 18.7265 9.96321 20.787 11.7059C20.8458 11.7552 20.8993 11.811 20.9466 11.8723C21.0307 11.9723 21.0753 12.1019 21.0713 12.2353C21.0673 12.3687 21.0151 12.4962 20.925 12.5925C20.751 12.7947 20.4788 12.8551 20.2581 12.6988C19.9747 12.4964 19.7106 12.2654 19.4433 12.0392C17.6033 10.4843 15.7643 8.92889 13.9262 7.37292C13.7356 7.21286 13.582 7.036 13.623 6.75313C13.6315 6.68089 13.6541 6.61104 13.6894 6.54782C13.7246 6.48461 13.7719 6.42935 13.8281 6.3854C13.8844 6.34144 13.9486 6.3097 14.0168 6.2921C14.0849 6.27451 14.1557 6.27142 14.2248 6.28303Z" fill="#757575"/>
</svg>
