<svg width="22" height="20" viewBox="0 0 22 20" fill="none" xmlns="http://www.w3.org/2000/svg">
<path d="M2.80783 6.32768C2.80863 6.32564 2.80944 6.32361 2.81024 6.32157L2.80783 6.32768Z" fill="black"/>
<path d="M1.81096 5.24794L2.74523 7.07213L2.90232 6.64188C4.27445 2.88376 7.88229 0.199951 12.1111 0.199951C17.5196 0.199951 21.9111 4.59152 21.9111 9.99995C21.9111 15.4084 17.5196 19.8 12.1111 19.8C8.48774 19.8 5.3201 17.8296 3.62433 14.9011C3.37281 14.4654 3.52136 13.9077 3.95684 13.6553C4.39117 13.404 4.94894 13.5523 5.20142 13.988C6.58122 16.3715 9.16012 17.9777 12.1111 17.9777C16.5138 17.9777 20.0889 14.4026 20.0889 9.99995C20.0889 5.59614 16.5138 2.02217 12.1111 2.02217C8.44439 2.02217 5.3528 4.50005 4.42057 7.87109L4.29132 8.33848L6.65933 6.98689C7.09571 6.73727 7.65238 6.88868 7.90197 7.32592C8.15145 7.76206 7.99947 8.31886 7.56292 8.56857L3.6738 10.7909C3.45836 10.9146 3.20169 10.9439 2.96264 10.8727C2.72387 10.8016 2.52519 10.6366 2.41119 10.4151L0.189051 6.07863C-0.040347 5.63167 0.137058 5.08206 0.584668 4.85233C1.03163 4.62293 1.58123 4.80033 1.81096 5.24794Z" fill="black"/>
<path d="M13.0222 5.55551V9.62279L16.0886 12.6891C16.4438 13.0444 16.4438 13.6222 16.0886 13.9774C15.7334 14.3326 15.1555 14.3326 14.8003 13.9774L11.467 10.6441C11.2956 10.4727 11.2 10.2414 11.2 9.99995V5.55551C11.2 5.05263 11.6082 4.6444 12.1111 4.6444C12.614 4.6444 13.0222 5.05263 13.0222 5.55551Z" fill="black"/>
</svg>
