<svg width="21" height="24" viewBox="0 0 21 24" fill="none" xmlns="http://www.w3.org/2000/svg">
<path d="M18.25 2.56918H11.5833V0.856392C11.5833 0.629263 11.4955 0.411436 11.3393 0.250831C11.183 0.0902267 10.971 0 10.75 0C10.529 0 10.317 0.0902267 10.1607 0.250831C10.0045 0.411436 9.91667 0.629263 9.91667 0.856392V2.56918H3.25C2.58696 2.56918 1.95107 2.83986 1.48223 3.32167C1.01339 3.80348 0.75 4.45696 0.75 5.13835V15.4151C0.75 16.0964 1.01339 16.7499 1.48223 17.2317C1.95107 17.7136 2.58696 17.9842 3.25 17.9842H6.81417L4.19333 22.6944C4.13843 22.792 4.1028 22.8997 4.0885 23.0115C4.0742 23.1232 4.0815 23.2368 4.10999 23.3456C4.13848 23.4544 4.1876 23.5564 4.25453 23.6457C4.32145 23.735 4.40487 23.8098 4.5 23.8659C4.59494 23.9224 4.69979 23.959 4.80853 23.9737C4.91726 23.9884 5.02776 23.9809 5.13367 23.9516C5.23958 23.9223 5.33882 23.8718 5.42571 23.803C5.5126 23.7343 5.58542 23.6485 5.64 23.5508L8.73333 17.9842H9.91667V23.1226C9.91667 23.3497 10.0045 23.5675 10.1607 23.7281C10.317 23.8888 10.529 23.979 10.75 23.979C10.971 23.979 11.183 23.8888 11.3393 23.7281C11.4955 23.5675 11.5833 23.3497 11.5833 23.1226V17.9842H12.7667L15.86 23.5508C15.9128 23.6512 15.9846 23.7398 16.0713 23.8113C16.1579 23.8828 16.2575 23.9358 16.3644 23.9671C16.4712 23.9984 16.583 24.0075 16.6933 23.9938C16.8036 23.9801 16.9101 23.9438 17.0066 23.8872C17.103 23.8305 17.1875 23.7546 17.255 23.6639C17.3225 23.5733 17.3717 23.4696 17.3996 23.3591C17.4276 23.2487 17.4338 23.1335 17.4178 23.0205C17.4018 22.9076 17.3641 22.799 17.3067 22.7012L14.6858 17.9842H18.25C18.913 17.9842 19.5489 17.7136 20.0178 17.2317C20.4866 16.7499 20.75 16.0964 20.75 15.4151V5.13835C20.75 4.45696 20.4866 3.80348 20.0178 3.32167C19.5489 2.83986 18.913 2.56918 18.25 2.56918ZM12.4167 16.2715V14.5587H15.75V16.2715H12.4167ZM19.0833 15.4151C19.0833 15.6422 18.9955 15.86 18.8393 16.0206C18.683 16.1812 18.471 16.2715 18.25 16.2715H17.4167V14.5587C17.4167 14.1044 17.2411 13.6688 16.9285 13.3475C16.6159 13.0263 16.192 12.8459 15.75 12.8459H12.4167C11.9746 12.8459 11.5507 13.0263 11.2382 13.3475C10.9256 13.6688 10.75 14.1044 10.75 14.5587V16.2715H3.25C3.02899 16.2715 2.81702 16.1812 2.66074 16.0206C2.50446 15.86 2.41667 15.6422 2.41667 15.4151V5.13835C2.41667 4.91122 2.50446 4.6934 2.66074 4.53279C2.81702 4.37219 3.02899 4.28196 3.25 4.28196H18.25C18.471 4.28196 18.683 4.37219 18.8393 4.53279C18.9955 4.6934 19.0833 4.91122 19.0833 5.13835V15.4151Z" fill="black"/>
</svg>
