<svg width="30" height="30" viewBox="0 0 30 30" fill="none" xmlns="http://www.w3.org/2000/svg">
<path d="M22.5566 12.5293C22.5566 12.8464 22.2996 13.1035 21.9824 13.1035C21.6653 13.1035 21.4082 12.8464 21.4082 12.5293C21.4082 12.2122 21.6653 11.9551 21.9824 11.9551C22.2996 11.9551 22.5566 12.2122 22.5566 12.5293Z" fill="white" stroke="white"/>
<path d="M22.5567 3.39844V3.89844H23.0567H24.4532C26.5463 3.89844 28.2501 5.60216 28.2501 7.69531V13.8184C28.2501 14.1355 27.993 14.3926 27.6758 14.3926C27.3587 14.3926 27.1016 14.1355 27.1016 13.8184V7.69531C27.1016 6.23452 25.914 5.04688 24.4532 5.04688H23.0567H22.5567V5.54688V6.62109C22.5567 6.93824 22.2996 7.19531 21.9825 7.19531C21.6653 7.19531 21.4082 6.93824 21.4082 6.62109V5.54688V5.04688H20.9082H16.0205H15.5205V5.54688V6.62109C15.5205 6.93824 15.2635 7.19531 14.9463 7.19531C14.6292 7.19531 14.3721 6.93824 14.3721 6.62109V5.54688V5.04688H13.8721H9.0381H8.5381V5.54688V6.62109C8.5381 6.93824 8.28103 7.19531 7.96388 7.19531C7.64673 7.19531 7.38966 6.93824 7.38966 6.62109V5.54688V5.04688H6.88966H5.54688C4.08609 5.04688 2.89844 6.23452 2.89844 7.69531V24.4531C2.89844 25.9139 4.08609 27.1016 5.54688 27.1016H13.7647C14.0818 27.1016 14.3389 27.3586 14.3389 27.6758C14.3389 27.9929 14.0818 28.25 13.7647 28.25H5.54688C3.45372 28.25 1.75 26.5463 1.75 24.4531V7.69531C1.75 5.60216 3.45372 3.89844 5.54688 3.89844H6.88966H7.38966V3.39844V2.32422C7.38966 2.00707 7.64673 1.75 7.96388 1.75C8.28103 1.75 8.5381 2.00707 8.5381 2.32422V3.39844V3.89844H9.0381H13.8721H14.3721V3.39844V2.32422C14.3721 2.00707 14.6292 1.75 14.9463 1.75C15.2635 1.75 15.5205 2.00707 15.5205 2.32422V3.39844V3.89844H16.0205H20.9082H21.4082V3.39844V2.32422C21.4082 2.00707 21.6653 1.75 21.9825 1.75C22.2996 1.75 22.5567 2.00707 22.5567 2.32422V3.39844Z" fill="white" stroke="white"/>
<path d="M22.251 15.752C18.6674 15.752 15.752 18.6674 15.752 22.251C15.752 25.8346 18.6674 28.75 22.251 28.75C25.8346 28.75 28.75 25.8346 28.75 22.251C28.75 18.6674 25.8346 15.752 22.251 15.752ZM22.251 26.6016C19.8521 26.6016 17.9004 24.6499 17.9004 22.251C17.9004 19.852 19.8521 17.9004 22.251 17.9004C24.6499 17.9004 26.6016 19.852 26.6016 22.251C26.6016 24.6499 24.6499 26.6016 22.251 26.6016Z" fill="white"/>
<path d="M23.8086 21.1768H23.3252V20.0488C23.3252 19.4555 22.8443 18.9746 22.251 18.9746C21.6577 18.9746 21.1768 19.4555 21.1768 20.0488V22.251C21.1768 22.8443 21.6577 23.3252 22.251 23.3252H23.8086C24.4019 23.3252 24.8828 22.8443 24.8828 22.251C24.8828 21.6577 24.4019 21.1768 23.8086 21.1768Z" fill="white"/>
<path d="M17.3096 13.6035C17.9028 13.6035 18.3838 13.1226 18.3838 12.5293C18.3838 11.936 17.9028 11.4551 17.3096 11.4551C16.7163 11.4551 16.2354 11.936 16.2354 12.5293C16.2354 13.1226 16.7163 13.6035 17.3096 13.6035Z" fill="white"/>
<path d="M12.6367 18.2764C13.23 18.2764 13.7109 17.7954 13.7109 17.2021C13.7109 16.6089 13.23 16.1279 12.6367 16.1279C12.0434 16.1279 11.5625 16.6089 11.5625 17.2021C11.5625 17.7954 12.0434 18.2764 12.6367 18.2764Z" fill="white"/>
<path d="M7.96387 13.6035C8.55714 13.6035 9.03809 13.1226 9.03809 12.5293C9.03809 11.936 8.55714 11.4551 7.96387 11.4551C7.37059 11.4551 6.88965 11.936 6.88965 12.5293C6.88965 13.1226 7.37059 13.6035 7.96387 13.6035Z" fill="white"/>
<path d="M7.96387 18.2764C8.55714 18.2764 9.03809 17.7954 9.03809 17.2021C9.03809 16.6089 8.55714 16.1279 7.96387 16.1279C7.37059 16.1279 6.88965 16.6089 6.88965 17.2021C6.88965 17.7954 7.37059 18.2764 7.96387 18.2764Z" fill="white"/>
<path d="M7.96387 22.9492C8.55714 22.9492 9.03809 22.4683 9.03809 21.875C9.03809 21.2817 8.55714 20.8008 7.96387 20.8008C7.37059 20.8008 6.88965 21.2817 6.88965 21.875C6.88965 22.4683 7.37059 22.9492 7.96387 22.9492Z" fill="white"/>
<path d="M12.6367 22.9492C13.23 22.9492 13.7109 22.4683 13.7109 21.875C13.7109 21.2817 13.23 20.8008 12.6367 20.8008C12.0434 20.8008 11.5625 21.2817 11.5625 21.875C11.5625 22.4683 12.0434 22.9492 12.6367 22.9492Z" fill="white"/>
<path d="M12.6367 13.6035C13.23 13.6035 13.7109 13.1226 13.7109 12.5293C13.7109 11.936 13.23 11.4551 12.6367 11.4551C12.0434 11.4551 11.5625 11.936 11.5625 12.5293C11.5625 13.1226 12.0434 13.6035 12.6367 13.6035Z" fill="white"/>
</svg>
