<svg width="24" height="24" viewBox="0 0 24 24" fill="none" xmlns="http://www.w3.org/2000/svg">
<path fill-rule="evenodd" clip-rule="evenodd" d="M14.9066 4.01459C15.9076 4.41295 16.2139 5.80027 16.6232 6.24619C17.0326 6.69211 17.6183 6.84373 17.9424 6.84373C19.665 6.84373 21.0614 8.23996 21.0614 9.96123V15.7037C21.0614 18.0126 19.1882 19.8855 16.8789 19.8855H6.90833C4.59804 19.8855 2.72583 18.0126 2.72583 15.7037V9.96123C2.72583 8.23996 4.12231 6.84373 5.84487 6.84373C6.16797 6.84373 6.75372 6.69211 7.16404 6.24619C7.57337 5.80027 7.87863 4.41295 8.87966 4.01459C9.88168 3.61623 13.9056 3.61623 14.9066 4.01459Z" stroke="white" stroke-width="1.5" stroke-linecap="round" stroke-linejoin="round"/>
<path d="M17.3402 9.41393H17.3491" stroke="white" stroke-width="2" stroke-linecap="round" stroke-linejoin="round"/>
<path fill-rule="evenodd" clip-rule="evenodd" d="M15.0442 13.0091C15.0442 11.269 13.6338 9.85889 11.8934 9.85889C10.153 9.85889 8.74268 11.269 8.74268 13.0091C8.74268 14.7492 10.153 16.1593 11.8934 16.1593C13.6338 16.1593 15.0442 14.7492 15.0442 13.0091Z" stroke="white" stroke-width="1.5" stroke-linecap="round" stroke-linejoin="round"/>
</svg>
