<svg width="22" height="20" viewBox="0 0 22 20" fill="none" xmlns="http://www.w3.org/2000/svg">
<path d="M2.80772 6.32768C2.80852 6.32564 2.80933 6.32361 2.81014 6.32157Z" fill="#A52A0E"/>
<path d="M1.81085 5.24794L2.74512 7.07213L2.90221 6.64188C4.27435 2.88376 7.88218 0.199951 12.111 0.199951C17.5194 0.199951 21.911 4.59152 21.911 9.99995C21.911 15.4084 17.5194 19.8 12.111 19.8C8.48763 19.8 5.31999 17.8296 3.62422 14.9011C3.3727 14.4654 3.52125 13.9077 3.95673 13.6553C4.39106 13.404 4.94883 13.5523 5.20131 13.988C6.58111 16.3715 9.16002 17.9777 12.111 17.9777C16.5137 17.9777 20.0888 14.4026 20.0888 9.99995C20.0888 5.59614 16.5137 2.02217 12.111 2.02217C8.44428 2.02217 5.35269 4.50005 4.42047 7.87109L4.29121 8.33848L6.65922 6.98689C7.0956 6.73727 7.65227 6.88868 7.90186 7.32592C8.15135 7.76206 7.99937 8.31886 7.56282 8.56857L3.67369 10.7909C3.45825 10.9146 3.20158 10.9439 2.96253 10.8727C2.72376 10.8016 2.52508 10.6366 2.41108 10.4151L0.188944 6.07863C-0.0404538 5.63167 0.136952 5.08206 0.584562 4.85233C1.03153 4.62293 1.58112 4.80033 1.81085 5.24794Z" fill="#A52A0E"/>
<path d="M13.0221 5.55551V9.62279L16.0885 12.6891C16.4437 13.0444 16.4437 13.6222 16.0885 13.9774C15.7333 14.3326 15.1554 14.3326 14.8002 13.9774L11.4669 10.6441C11.2955 10.4727 11.1999 10.2414 11.1999 9.99995V5.55551C11.1999 5.05263 11.6081 4.6444 12.111 4.6444C12.6139 4.6444 13.0221 5.05263 13.0221 5.55551Z" fill="#A52A0E"/>
</svg>
