<svg width="24" height="22" viewBox="0 0 24 22" fill="none" xmlns="http://www.w3.org/2000/svg">
<path d="M12 21C11.6868 21 11.3848 20.8841 11.1495 20.6734C10.2608 19.8794 9.40392 19.1331 8.64793 18.4749L8.64407 18.4714C6.42766 16.5415 4.5137 14.8747 3.18201 13.2329C1.69337 11.3974 1 9.65708 1 7.75591C1 5.90876 1.61986 4.20464 2.74527 2.95726C3.88411 1.69513 5.44676 1 7.14587 1C8.4158 1 9.57881 1.41025 10.6025 2.21926C11.1191 2.62762 11.5874 3.1274 12 3.71036C12.4127 3.1274 12.8809 2.62762 13.3977 2.21926C14.4214 1.41025 15.5844 1 16.8543 1C18.5532 1 20.1161 1.69513 21.2549 2.95726C22.3803 4.20464 23 5.90876 23 7.75591C23 9.65708 22.3068 11.3974 20.8182 13.2327C19.4865 14.8747 17.5727 16.5413 15.3566 18.4711C14.5993 19.1304 13.7411 19.8778 12.8503 20.6738C12.6152 20.8841 12.313 21 12 21V21ZM7.14587 2.31685C5.81099 2.31685 4.5847 2.86121 3.6926 3.84979C2.78723 4.85329 2.28856 6.24046 2.28856 7.75591C2.28856 9.35489 2.87015 10.7849 4.17415 12.3927C5.43451 13.9467 7.30919 15.5791 9.47978 17.4693L9.48381 17.4727C10.2426 18.1336 11.1029 18.8827 11.9982 19.6826C12.8988 18.8812 13.7604 18.1308 14.5207 17.469C16.6911 15.5788 18.5657 13.9467 19.826 12.3927C21.1299 10.7849 21.7114 9.35489 21.7114 7.75591C21.7114 6.24046 21.2128 4.85329 20.3074 3.84979C19.4155 2.86121 18.189 2.31685 16.8543 2.31685C15.8764 2.31685 14.9786 2.63448 14.1859 3.26083C13.4794 3.81926 12.9873 4.52519 12.6987 5.01914C12.5504 5.27315 12.2892 5.42476 12 5.42476C11.7108 5.42476 11.4496 5.27315 11.3013 5.01914C11.0129 4.52519 10.5208 3.81926 9.81413 3.26083C9.02139 2.63448 8.12358 2.31685 7.14587 2.31685V2.31685Z" fill="#A52A0E" stroke="#A52A0E" stroke-width="0.6"/>
</svg>
