<svg width="54" height="42" viewBox="0 0 54 42" fill="none" xmlns="http://www.w3.org/2000/svg">
<path d="M27 21V21V21V21V21V21V21V21V21V21V21V21V21V21V21V21V21V21M33 39C38 39 42.25 37.25 45.75 33.75C49.25 30.25 51 26 51 21C51 15.95 49.1625 11.6875 45.4875 8.21252C41.8125 4.73752 37.4 3.00002 32.25 3.00002C29.35 3.00002 26.6308 3.35194 24.0923 4.05579C21.5539 4.75963 19.1193 5.8154 16.7885 7.22309L25.6731 10.6846C27.4154 11.4192 28.8221 12.5587 29.8933 14.1029C30.9645 15.6471 31.5 17.3462 31.5 19.2C31.5 21.8154 30.6068 24.0193 28.8202 25.8116C27.0337 27.6039 24.8769 28.5 22.35 28.5H3.61155C3.39617 29.5462 3.2404 30.726 3.14425 32.0395C3.04809 33.3529 3.00002 35.0577 3.00002 37.1539C3.00002 37.6154 3.19232 38.0385 3.57694 38.4231C3.96155 38.8077 4.38463 39 4.84616 39H33V39M4.08463 25.5H22.2C23.9731 25.5 25.4664 24.8933 26.6798 23.6798C27.8933 22.4664 28.5 20.9731 28.5 19.2C28.5 17.9423 28.151 16.801 27.4529 15.776C26.7548 14.751 25.7962 13.9808 24.5769 13.4654L13.9385 9.19618C11.5308 11.2385 9.49328 13.6366 7.82598 16.3904C6.15867 19.1442 4.91156 22.1808 4.08463 25.5V25.5M33 42H4.84616C3.46539 42 2.3125 41.5375 1.3875 40.6125C0.462501 39.6875 0 38.5346 0 37.1539V34.9038C0 29.7731 0.790385 25.0702 2.37116 20.7952C3.95193 16.5202 6.16635 12.8433 9.01443 9.76443C11.8625 6.68558 15.2635 4.28846 19.2173 2.57308C23.1712 0.857694 27.5154 0 32.25 0C35.2269 0 38.0327 0.548077 40.6673 1.64423C43.302 2.74039 45.6096 4.23174 47.5904 6.11828C49.5712 8.00482 51.1346 10.225 52.2808 12.7789C53.427 15.3327 54 18.0731 54 21C54 23.8769 53.452 26.5952 52.3558 29.1548C51.2596 31.7145 49.7587 33.9471 47.8529 35.8529C45.9471 37.7587 43.7241 39.2596 41.1837 40.3558C38.6433 41.452 35.9154 42 33 42V42" fill="#F20D0D"/>
</svg>
