<svg width="20" height="18" viewBox="0 0 20 18" fill="none" xmlns="http://www.w3.org/2000/svg">
<path d="M0.53 9.87999C0.686372 9.96028 0.861146 9.99793 1.03671 9.98915C1.21227 9.98038 1.38242 9.92548 1.53 9.82999L7.53 5.82999C7.66612 5.73851 7.77766 5.61496 7.85478 5.47022C7.9319 5.32548 7.97224 5.16399 7.97224 4.99999C7.97224 4.83598 7.9319 4.67449 7.85478 4.52975C7.77766 4.38501 7.66612 4.26146 7.53 4.16999L1.53 0.169986C1.37798 0.0822172 1.20554 0.0360107 1.03 0.0360107C0.854463 0.0360107 0.682019 0.0822172 0.53 0.169986C0.377551 0.250845 0.248621 0.369779 0.155748 0.515222C0.0628746 0.660665 0.0092194 0.827666 0 0.999985V8.99999C0.00048271 9.18089 0.0500301 9.35827 0.143364 9.51324C0.236697 9.66821 0.370321 9.79496 0.53 9.87999V9.87999ZM2 2.86999L5.2 4.99999L2 7.12999V2.86999Z" fill="#A52A0E"/>
<path d="M11 6H19C19.2652 6 19.5196 5.89464 19.7071 5.70711C19.8946 5.51957 20 5.26522 20 5C20 4.73478 19.8946 4.48043 19.7071 4.29289C19.5196 4.10536 19.2652 4 19 4H11C10.7348 4 10.4804 4.10536 10.2929 4.29289C10.1054 4.48043 10 4.73478 10 5C10 5.26522 10.1054 5.51957 10.2929 5.70711C10.4804 5.89464 10.7348 6 11 6V6Z" fill="#A52A0E"/>
<path d="M19 8H8C7.73478 8 7.48043 8.10536 7.29289 8.29289C7.10536 8.48043 7 8.73478 7 9C7 9.26522 7.10536 9.51957 7.29289 9.70711C7.48043 9.89464 7.73478 10 8 10H19C19.2652 10 19.5196 9.89464 19.7071 9.70711C19.8946 9.51957 20 9.26522 20 9C20 8.73478 19.8946 8.48043 19.7071 8.29289C19.5196 8.10536 19.2652 8 19 8Z" fill="#A52A0E"/>
<path d="M19 12H1C0.734784 12 0.48043 12.1054 0.292893 12.2929C0.105357 12.4804 0 12.7348 0 13C0 13.2652 0.105357 13.5196 0.292893 13.7071C0.48043 13.8946 0.734784 14 1 14H19C19.2652 14 19.5196 13.8946 19.7071 13.7071C19.8946 13.5196 20 13.2652 20 13C20 12.7348 19.8946 12.4804 19.7071 12.2929C19.5196 12.1054 19.2652 12 19 12Z" fill="#A52A0E"/>
<path d="M19 16H1C0.734784 16 0.48043 16.1054 0.292893 16.2929C0.105357 16.4804 0 16.7348 0 17C0 17.2652 0.105357 17.5196 0.292893 17.7071C0.48043 17.8946 0.734784 18 1 18H19C19.2652 18 19.5196 17.8946 19.7071 17.7071C19.8946 17.5196 20 17.2652 20 17C20 16.7348 19.8946 16.4804 19.7071 16.2929C19.5196 16.1054 19.2652 16 19 16Z" fill="#A52A0E"/>
</svg>
