<svg width="22" height="24" viewBox="0 0 22 24" fill="none" xmlns="http://www.w3.org/2000/svg">
<path d="M21.0339 13.7486L20.1187 12.9952C19.4917 12.4791 19.4929 11.5199 20.1187 11.0048L21.0339 10.2514C21.6852 9.71518 21.8518 8.79573 21.43 8.06505L19.6228 4.93495C19.2009 4.20431 18.3212 3.88892 17.5313 4.1848L16.4212 4.6007C15.6609 4.88549 14.8307 4.40514 14.6975 3.6055L14.5026 2.43614C14.3639 1.60401 13.6509 1 12.8073 1H9.19295C8.34926 1 7.63623 1.60401 7.49757 2.43619L7.30267 3.6055C7.16916 4.40656 6.33789 4.88502 5.57893 4.60074L4.46884 4.1848C3.67894 3.88892 2.79928 4.20435 2.37737 4.93495L0.570237 8.06501C0.148413 8.79561 0.31496 9.71509 0.966323 10.2513L1.88151 11.0048C2.50851 11.5209 2.50727 12.48 1.88151 12.9952L0.96628 13.7486C0.31496 14.2848 0.14837 15.2043 0.570194 15.9349L2.37737 19.065C2.79924 19.7956 3.67873 20.111 4.46884 19.8152L5.57889 19.3993C6.33939 19.1143 7.16938 19.595 7.30262 20.3945L7.49753 21.5637C7.63623 22.396 8.34926 23 9.19291 23H12.8072C13.6509 23 14.3639 22.396 14.5026 21.5638L14.6974 20.3945C14.8309 19.5937 15.6621 19.1149 16.4212 19.3993L17.5313 19.8152C18.3214 20.1111 19.2009 19.7957 19.6228 19.0651L21.43 15.9349C21.8518 15.2043 21.6852 14.2848 21.0339 13.7486V13.7486ZM18.1343 18.2057L17.0242 17.7898C15.2497 17.125 13.313 18.2465 13.0021 20.1119L12.8073 21.2812H9.19295L8.99804 20.1119C8.68656 18.2429 6.74708 17.1263 4.97595 17.7898L3.86585 18.2057L2.05872 15.0756L2.97391 14.3222C4.43695 13.1177 4.4339 10.8798 2.97391 9.67784L2.05872 8.92443L3.8659 5.79432L4.97595 6.21022C6.75056 6.87495 8.68716 5.75346 8.99804 3.88806L9.19291 2.71875H12.8072L13.0021 3.88806C13.3136 5.75728 15.2532 6.87357 17.0242 6.21022L18.1343 5.79432L19.9418 8.924C19.9418 8.924 19.9417 8.92412 19.9414 8.92438L19.0262 9.6778C17.5632 10.8821 17.5661 13.1202 19.0262 14.3221L19.9414 15.0755L18.1343 18.2057ZM11.0001 7.7604C8.66237 7.7604 6.76049 9.66229 6.76049 12C6.76049 14.3377 8.66237 16.2396 11.0001 16.2396C13.3378 16.2396 15.2397 14.3377 15.2397 12C15.2397 9.66229 13.3378 7.7604 11.0001 7.7604ZM11.0001 14.5208C9.61009 14.5208 8.47924 13.39 8.47924 12C8.47924 10.61 9.61009 9.47915 11.0001 9.47915C12.3901 9.47915 13.5209 10.61 13.5209 12C13.5209 13.39 12.3901 14.5208 11.0001 14.5208Z" fill="#A52A0E" stroke="#A52A0E" stroke-width="0.3"/>
</svg>
