<svg width="25" height="24" viewBox="0 0 25 24" fill="none" xmlns="http://www.w3.org/2000/svg">
<path fill-rule="evenodd" clip-rule="evenodd" d="M6.39509 8.00154L6.99796 17.8856C6.99797 17.8857 6.99796 17.8855 6.99796 17.8856C7.04472 18.6418 7.68486 19.2501 8.48341 19.2501H15.1937C15.9752 19.2501 16.609 18.6669 16.6776 17.9294C16.6776 17.9292 16.6775 17.9296 16.6776 17.9294L17.5861 8.00007C15.9238 7.89378 13.7086 7.7771 12.002 7.7771C10.2876 7.7771 8.05985 7.89485 6.39509 8.00154ZM19.0832 8.10244C19.2451 8.11423 19.3876 8.12487 19.5078 8.13396C19.6468 8.1445 19.7559 8.15297 19.83 8.1588L19.9424 8.16773C20.3553 8.20126 20.7176 7.89378 20.7511 7.48093C20.7846 7.06807 20.4771 6.70621 20.0641 6.67268L19.9476 6.66341C19.8722 6.65748 19.7617 6.6489 19.6211 6.63825C19.3399 6.61695 18.938 6.5874 18.4544 6.55429C16.7622 6.43842 14.0434 6.2771 12.002 6.2771C9.96066 6.2771 7.24187 6.43842 5.54968 6.55429C5.06611 6.5874 4.66423 6.61695 4.38302 6.63825C4.2424 6.6489 4.13192 6.65748 4.05646 6.66341L3.94051 6.67263C3.52759 6.70616 3.21945 7.06807 3.25299 7.48093C3.28652 7.89378 3.64844 8.20128 4.06136 8.16776M4.06136 8.16776L4.17409 8.1588C4.24821 8.15297 4.35723 8.1445 4.49631 8.13396C4.61085 8.12529 4.74575 8.11522 4.8983 8.10409L5.50052 17.9774C5.59721 19.5451 6.91264 20.7501 8.48341 20.7501H15.1937C16.7295 20.7501 18.0299 19.5971 18.1715 18.067L19.0832 8.10244" fill="#A52A0E"/>
<path fill-rule="evenodd" clip-rule="evenodd" d="M10.6019 4.75C10.4638 4.75 10.3518 4.86193 10.3518 5V6.59459C10.3518 7.00881 10.016 7.34459 9.60169 7.34459C9.18741 7.34459 8.85156 7.00881 8.85156 6.59459V5C8.85156 4.0335 9.6352 3.25 10.6019 3.25H13.4024C14.369 3.25 15.1527 4.0335 15.1527 5V6.59459C15.1527 7.00881 14.8168 7.34459 14.4025 7.34459C13.9882 7.34459 13.6524 7.00881 13.6524 6.59459V5C13.6524 4.86193 13.5404 4.75 13.4024 4.75H10.6019Z" fill="#A52A0E"/>
<path fill-rule="evenodd" clip-rule="evenodd" d="M8.05151 6.59473C8.05151 6.18051 8.38736 5.84473 8.80164 5.84473L10.4019 5.84473C10.8162 5.84473 11.1521 6.18051 11.1521 6.59473C11.1521 7.00894 10.8162 7.34473 10.4019 7.34473L8.80164 7.34473C8.38736 7.34473 8.05151 7.00894 8.05151 6.59473Z" fill="#A52A0E"/>
<path fill-rule="evenodd" clip-rule="evenodd" d="M12.8521 6.59473C12.8521 6.18051 13.1879 5.84473 13.6022 5.84473H15.2025C15.6167 5.84473 15.9526 6.18051 15.9526 6.59473C15.9526 7.00894 15.6167 7.34473 15.2025 7.34473H13.6022C13.1879 7.34473 12.8521 7.00894 12.8521 6.59473Z" fill="#A52A0E"/>
<path fill-rule="evenodd" clip-rule="evenodd" d="M12.0021 10.1689C12.4164 10.1689 12.7522 10.5047 12.7522 10.9189V16.1081C12.7522 16.5223 12.4164 16.8581 12.0021 16.8581C11.5878 16.8581 11.2519 16.5223 11.2519 16.1081V10.9189C11.2519 10.5047 11.5878 10.1689 12.0021 10.1689Z" fill="#A52A0E"/>
<path fill-rule="evenodd" clip-rule="evenodd" d="M8.80163 11.0337C9.21591 11.0337 9.55176 11.3695 9.55176 11.7837L9.55176 15.2432C9.55176 15.6574 9.21591 15.9932 8.80163 15.9932C8.38734 15.9932 8.0515 15.6574 8.0515 15.2432L8.0515 11.7837C8.0515 11.3695 8.38734 11.0337 8.80163 11.0337Z" fill="#A52A0E"/>
<path fill-rule="evenodd" clip-rule="evenodd" d="M15.2025 11.0337C15.6168 11.0337 15.9526 11.3695 15.9526 11.7837L15.9526 15.2432C15.9526 15.6574 15.6168 15.9932 15.2025 15.9932C14.7882 15.9932 14.4524 15.6574 14.4524 15.2432L14.4524 11.7837C14.4524 11.3695 14.7882 11.0337 15.2025 11.0337Z" fill="#A52A0E"/>
</svg>
