<svg width="20" height="24" viewBox="0 0 20 24" fill="none" xmlns="http://www.w3.org/2000/svg">
<path d="M9.84139 11.5975C11.2973 11.5975 12.5578 11.0753 13.5881 10.0451C14.618 9.015 15.1403 7.75464 15.1403 6.29857C15.1403 4.84301 14.6181 3.58248 13.5879 2.55208C12.5576 1.52217 11.2971 1 9.84139 1C8.38532 1 7.12496 1.52217 6.09489 2.55224C5.06482 3.58232 4.54248 4.84284 4.54248 6.29857C4.54248 7.75464 5.06482 9.01517 6.09489 10.0452C7.1253 11.0751 8.38583 11.5975 9.84139 11.5975V11.5975ZM7.00663 3.46382C7.79702 2.67343 8.7242 2.28923 9.84139 2.28923C10.9584 2.28923 11.8858 2.67343 12.6763 3.46382C13.4667 4.25437 13.8511 5.18172 13.8511 6.29857C13.8511 7.41576 13.4667 8.34294 12.6763 9.1335C11.8858 9.92405 10.9584 10.3083 9.84139 10.3083C8.72454 10.3083 7.79736 9.92389 7.00663 9.1335C6.21608 8.34311 5.83171 7.41576 5.83171 6.29857C5.83171 5.18172 6.21608 4.25437 7.00663 3.46382Z" fill="#A52A0E" stroke="#A52A0E" stroke-width="0.4"/>
<path d="M19.1132 17.9169C19.0835 17.4882 19.0234 17.0206 18.9349 16.5268C18.8456 16.0293 18.7306 15.559 18.593 15.1291C18.4507 14.6848 18.2575 14.2461 18.0183 13.8256C17.7704 13.3892 17.479 13.0092 17.1521 12.6965C16.8101 12.3694 16.3915 12.1064 15.9075 11.9145C15.4251 11.7237 14.8905 11.627 14.3186 11.627C14.0941 11.627 13.8769 11.7191 13.4574 11.9922C13.1993 12.1606 12.8973 12.3553 12.5603 12.5706C12.2721 12.7543 11.8817 12.9263 11.3995 13.0821C10.929 13.2343 10.4513 13.3115 9.97964 13.3115C9.50833 13.3115 9.03064 13.2343 8.55983 13.0821C8.07811 12.9265 7.68753 12.7544 7.39984 12.5708C7.066 12.3575 6.76387 12.1628 6.50186 11.9921C6.08275 11.719 5.86556 11.6268 5.64098 11.6268C5.06896 11.6268 4.53454 11.7237 4.05232 11.9147C3.56858 12.1062 3.14981 12.3692 2.80757 12.6967C2.4806 13.0095 2.18922 13.3894 1.94148 13.8256C1.70263 14.2461 1.50928 14.6847 1.36694 15.1293C1.22948 15.5591 1.1145 16.0293 1.02521 16.5268C0.936584 17.0199 0.876663 17.4877 0.846954 17.9174C0.817749 18.3375 0.802979 18.7747 0.802979 19.2165C0.802979 20.3649 1.16804 21.2946 1.88794 21.9803C2.59893 22.6569 3.53955 22.9999 4.68375 22.9999H15.2769C16.4207 22.9999 17.3614 22.6569 18.0725 21.9803C18.7926 21.2951 19.1576 20.3651 19.1576 19.2163C19.1575 18.7731 19.1425 18.3358 19.1132 17.9169V17.9169ZM17.1836 21.0462C16.7138 21.4933 16.0901 21.7107 15.2767 21.7107H4.68375C3.8702 21.7107 3.24649 21.4933 2.77685 21.0464C2.31611 20.6078 2.09221 20.0091 2.09221 19.2165C2.09221 18.8043 2.1058 18.3972 2.13299 18.0065C2.15951 17.6231 2.21373 17.202 2.29413 16.7545C2.37352 16.3126 2.47456 15.8978 2.59474 15.5224C2.71005 15.1623 2.86732 14.8058 3.06236 14.4624C3.2485 14.1351 3.46267 13.8543 3.699 13.6281C3.92005 13.4164 4.19868 13.2432 4.52699 13.1133C4.83062 12.9931 5.17185 12.9273 5.54229 12.9174C5.58744 12.9414 5.66784 12.9872 5.79809 13.0722C6.06311 13.2449 6.36859 13.4419 6.7063 13.6576C7.08698 13.9003 7.57742 14.1195 8.16338 14.3087C8.76242 14.5024 9.37338 14.6007 9.97981 14.6007C10.5862 14.6007 11.1974 14.5024 11.7961 14.3088C12.3825 14.1193 12.8728 13.9003 13.254 13.6573C13.5996 13.4364 13.8965 13.245 14.1615 13.0722C14.2918 12.9874 14.3722 12.9414 14.4173 12.9174C14.7879 12.9273 15.1292 12.9931 15.433 13.1133C15.7611 13.2432 16.0397 13.4166 16.2608 13.6281C16.4971 13.8542 16.7113 14.135 16.8974 14.4626C17.0926 14.8058 17.2501 15.1625 17.3652 15.5222C17.4856 15.8982 17.5868 16.3128 17.666 16.7544C17.7462 17.2027 17.8006 17.624 17.8271 18.0067V18.007C17.8545 18.3962 17.8683 18.8031 17.8684 19.2165C17.8683 20.0092 17.6443 20.6078 17.1836 21.0462V21.0462Z" fill="#A52A0E" stroke="#A52A0E" stroke-width="0.4"/>
</svg>
