<svg width="24" height="24" viewBox="0 0 24 24" fill="none" xmlns="http://www.w3.org/2000/svg">
<path d="M11.8414 11.5975C13.2973 11.5975 14.5578 11.0753 15.5881 10.0451C16.618 9.015 17.1403 7.75464 17.1403 6.29857C17.1403 4.84301 16.6181 3.58248 15.5879 2.55208C14.5576 1.52217 13.2971 1 11.8414 1C10.3853 1 9.12496 1.52217 8.09489 2.55224C7.06482 3.58232 6.54248 4.84284 6.54248 6.29857C6.54248 7.75464 7.06482 9.01517 8.09489 10.0452C9.1253 11.0751 10.3858 11.5975 11.8414 11.5975ZM9.00663 3.46382C9.79702 2.67343 10.7242 2.28923 11.8414 2.28923C12.9584 2.28923 13.8858 2.67343 14.6763 3.46382C15.4667 4.25437 15.8511 5.18172 15.8511 6.29857C15.8511 7.41576 15.4667 8.34294 14.6763 9.1335C13.8858 9.92405 12.9584 10.3083 11.8414 10.3083C10.7245 10.3083 9.79736 9.92389 9.00663 9.1335C8.21608 8.34311 7.83171 7.41576 7.83171 6.29857C7.83171 5.18172 8.21608 4.25437 9.00663 3.46382Z" fill="#A52A0E" stroke="#A52A0E" stroke-width="0.4"/>
<path d="M21.1132 17.9169C21.0835 17.4882 21.0234 17.0206 20.9349 16.5268C20.8456 16.0293 20.7306 15.559 20.593 15.1291C20.4507 14.6848 20.2575 14.2461 20.0183 13.8256C19.7704 13.3892 19.479 13.0092 19.1521 12.6965C18.8101 12.3694 18.3915 12.1064 17.9075 11.9145C17.4251 11.7237 16.8905 11.627 16.3186 11.627C16.0941 11.627 15.8769 11.7191 15.4574 11.9922C15.1993 12.1606 14.8973 12.3553 14.5603 12.5706C14.2721 12.7543 13.8817 12.9263 13.3995 13.0821C12.929 13.2343 12.4513 13.3115 11.9796 13.3115C11.5083 13.3115 11.0306 13.2343 10.5598 13.0821C10.0781 12.9265 9.68753 12.7544 9.39984 12.5708C9.066 12.3575 8.76387 12.1628 8.50186 11.9921C8.08275 11.719 7.86556 11.6268 7.64098 11.6268C7.06896 11.6268 6.53454 11.7237 6.05232 11.9147C5.56858 12.1062 5.14981 12.3692 4.80757 12.6967C4.4806 13.0095 4.18922 13.3894 3.94148 13.8256C3.70263 14.2461 3.50928 14.6847 3.36694 15.1293C3.22948 15.5591 3.1145 16.0293 3.02521 16.5268C2.93658 17.0199 2.87666 17.4877 2.84695 17.9174C2.81775 18.3375 2.80298 18.7747 2.80298 19.2165C2.80298 20.3649 3.16804 21.2946 3.88794 21.9803C4.59893 22.6569 5.53955 22.9999 6.68375 22.9999H17.2769C18.4207 22.9999 19.3614 22.6569 20.0725 21.9803C20.7926 21.2951 21.1576 20.3651 21.1576 19.2163C21.1575 18.7731 21.1425 18.3358 21.1132 17.9169ZM19.1836 21.0462C18.7138 21.4933 18.0901 21.7107 17.2767 21.7107H6.68375C5.8702 21.7107 5.24649 21.4933 4.77685 21.0464C4.31611 20.6078 4.09221 20.0091 4.09221 19.2165C4.09221 18.8043 4.1058 18.3972 4.13299 18.0065C4.15951 17.6231 4.21373 17.202 4.29413 16.7545C4.37352 16.3126 4.47456 15.8978 4.59474 15.5224C4.71005 15.1623 4.86732 14.8058 5.06236 14.4624C5.2485 14.1351 5.46267 13.8543 5.699 13.6281C5.92005 13.4164 6.19868 13.2432 6.52698 13.1133C6.83062 12.9931 7.17185 12.9273 7.54229 12.9174C7.58744 12.9414 7.66784 12.9872 7.79809 13.0722C8.06311 13.2449 8.3686 13.4419 8.7063 13.6576C9.08698 13.9003 9.57742 14.1195 10.1634 14.3087C10.7624 14.5024 11.3734 14.6007 11.9798 14.6007C12.5862 14.6007 13.1974 14.5024 13.7961 14.3088C14.3825 14.1193 14.8728 13.9003 15.254 13.6573C15.5996 13.4364 15.8965 13.245 16.1615 13.0722C16.2918 12.9874 16.3722 12.9414 16.4173 12.9174C16.7879 12.9273 17.1292 12.9931 17.433 13.1133C17.7611 13.2432 18.0397 13.4166 18.2608 13.6281C18.4971 13.8542 18.7113 14.135 18.8974 14.4626C19.0926 14.8058 19.2501 15.1625 19.3652 15.5222C19.4856 15.8982 19.5868 16.3128 19.666 16.7544C19.7462 17.2027 19.8006 17.624 19.8271 18.0067V18.007C19.8545 18.3962 19.8682 18.8031 19.8684 19.2165C19.8682 20.0092 19.6443 20.6078 19.1836 21.0462Z" fill="#A52A0E" stroke="#A52A0E" stroke-width="0.4"/>
</svg>
