<svg width="20" height="20" viewBox="0 0 20 20" fill="none" xmlns="http://www.w3.org/2000/svg">
<path d="M16.5834 8.79999L16.2667 9.58332C16.1667 9.84999 16.1667 10.1333 16.2667 10.4L16.5834 11.1833C16.7667 11.65 16.6167 12.1833 16.2001 12.4833L15.5001 12.9667C15.2667 13.1333 15.1167 13.3833 15.0501 13.65L14.9001 14.4833C14.8001 14.9833 14.3834 15.35 13.8834 15.3667L13.0334 15.4C12.7501 15.4167 12.4834 15.5333 12.2834 15.7333L11.7001 16.35C11.3501 16.7167 10.8001 16.8 10.3667 16.55L9.6334 16.1167C9.3834 15.9667 9.10007 15.9333 8.81673 16L7.9834 16.2C7.50007 16.3167 6.9834 16.0833 6.75006 15.6333L6.36673 14.8667C6.2334 14.6167 6.01673 14.4167 5.75007 14.3333L4.95007 14.0667C4.46673 13.9 4.16673 13.4333 4.21673 12.9333L4.30006 12.0833C4.3334 11.8 4.25006 11.5167 4.06673 11.3L3.5334 10.6333C3.21673 10.2333 3.21673 9.68332 3.5334 9.28332L4.06673 8.61665C4.25006 8.39999 4.3334 8.11665 4.30006 7.83332L4.21673 6.98332C4.16673 6.48332 4.46673 6.01665 4.95007 5.84999L5.75007 5.58332C6.01673 5.49999 6.2334 5.29999 6.36673 5.04999L6.75006 4.28332C6.9834 3.83332 7.4834 3.59999 7.9834 3.71665L8.81673 3.91665C9.0834 3.98332 9.3834 3.94999 9.6334 3.79999L10.3667 3.36665C10.8001 3.11665 11.3501 3.18332 11.7001 3.56665L12.2834 4.18332C12.4834 4.38332 12.7501 4.51665 13.0334 4.51665L13.8834 4.54999C14.3834 4.56665 14.8167 4.93332 14.9001 5.43332L15.0501 6.26665C15.1001 6.54999 15.2667 6.79999 15.5001 6.94999L16.2001 7.43332C16.6167 7.79999 16.7834 8.33332 16.5834 8.79999Z" fill="#00D566"/>
<g opacity="0.15">
<path d="M7.2334 15.5833L6.85006 14.8167C6.71673 14.5667 6.50007 14.3667 6.2334 14.2833L5.4334 14.0167C4.95006 13.85 4.65007 13.3833 4.70007 12.8833L4.7834 12.0333C4.81673 11.75 4.7334 11.4667 4.55006 11.25L4.01673 10.5833C3.70007 10.1833 3.70007 9.63333 4.01673 9.23333L4.55006 8.56666C4.7334 8.35 4.81673 8.06666 4.7834 7.78333L4.70007 6.93333C4.65007 6.43333 4.95006 5.96666 5.4334 5.8L6.2334 5.53333C6.50007 5.45 6.71673 5.25 6.85006 5L7.2334 4.23333C7.36673 3.96666 7.60006 3.78333 7.85006 3.7C7.40006 3.63333 6.95006 3.86666 6.75006 4.28333L6.36673 5.05C6.2334 5.3 6.01673 5.5 5.75007 5.58333L4.95007 5.85C4.46673 6.01666 4.16673 6.48333 4.21673 6.98333L4.30006 7.83333C4.3334 8.11666 4.25006 8.4 4.06673 8.61666L3.5334 9.28333C3.21673 9.68333 3.21673 10.2333 3.5334 10.6333L4.06673 11.3C4.25006 11.5167 4.3334 11.8 4.30006 12.0833L4.21673 12.9333C4.16673 13.4333 4.46673 13.9 4.95007 14.0667L5.75007 14.3333C6.01673 14.4167 6.2334 14.6167 6.36673 14.8667L6.75006 15.6333C6.9834 16.0833 7.4834 16.3167 7.9834 16.2L8.0834 16.1833C7.71673 16.1167 7.40007 15.9167 7.2334 15.5833Z" fill="black"/>
<path d="M10.1001 3.74995L10.8334 3.31662C10.9001 3.28328 10.9667 3.24995 11.0334 3.23328C10.8001 3.19995 10.5501 3.24995 10.3501 3.36662L9.61675 3.79995C9.55008 3.83328 9.48341 3.86662 9.41675 3.88328C9.65008 3.91662 9.88341 3.88328 10.1001 3.74995Z" fill="black"/>
<path d="M13.5002 15.3333C13.4168 15.3333 13.3335 15.3499 13.2668 15.3666L13.8668 15.3333C13.9502 15.3333 14.0168 15.3166 14.1002 15.2999L13.5002 15.3333Z" fill="black"/>
<path d="M10.8333 16.4833L10.1 16.0499C9.85002 15.8999 9.56668 15.8666 9.28335 15.9333L9.18335 15.9499C9.33335 15.9666 9.46668 16.0166 9.60002 16.0833L10.3333 16.5166C10.6167 16.6833 10.9333 16.6999 11.2333 16.5999C11.1 16.5999 10.9667 16.5666 10.8333 16.4833Z" fill="black"/>
</g>
<path d="M7.3335 8.9333L9.41683 11.3166L13.6835 7.8833" fill="#00D566"/>
<path d="M8.9167 12.55C8.68336 12.55 8.45003 12.45 8.28336 12.2666L6.20003 9.88328C5.90003 9.53328 5.93336 9.01662 6.2667 8.69995C6.6167 8.39995 7.13336 8.43328 7.45003 8.76662L9.0167 10.55L12.6667 7.61662C13.0167 7.33328 13.55 7.38328 13.8334 7.74995C14.1167 8.11662 14.0667 8.63328 13.7 8.91662L9.43336 12.3666C9.28336 12.4833 9.10003 12.55 8.9167 12.55Z" fill="white"/>
</svg>
