<svg width="23" height="23" viewBox="0 0 23 23" fill="none" xmlns="http://www.w3.org/2000/svg">
<path d="M22.074 22.996C20.8878 22.0953 19.7433 21.1423 18.5772 20.2143C18.4887 20.1442 18.3998 20.1554 18.3069 20.1548C15.1656 20.1548 12.0245 20.1548 8.88357 20.1548C7.47605 20.1548 6.3577 19.2713 6.04406 17.9189C5.93283 17.4532 5.95897 16.977 5.98845 16.5063C6.01125 16.1452 6.35326 15.8838 6.71139 15.8982C6.88696 15.9053 7.05356 15.9777 7.17863 16.1011C7.30369 16.2246 7.37821 16.3903 7.38762 16.5658C7.3993 16.765 7.39207 16.9653 7.39207 17.1645C7.39207 18.1536 7.97377 18.7383 8.95809 18.7383C12.1587 18.7383 15.3589 18.7372 18.5588 18.735C18.8402 18.7282 19.1145 18.8239 19.3307 19.0043C20.0642 19.6001 20.8055 20.1876 21.5451 20.7796C21.618 20.7278 21.5813 20.6555 21.5813 20.5971C21.5835 16.7005 21.5835 12.804 21.5813 8.90779C21.5813 8.02098 21.0457 7.44628 20.1682 7.38119C19.7317 7.34892 19.4369 7.04126 19.4553 6.63736C19.4736 6.23346 19.7989 5.95473 20.2338 5.96307C21.5607 5.98811 22.7146 6.97617 22.9532 8.29192C22.9604 8.33142 22.9388 8.38427 22.9999 8.40319V22.512C22.8537 22.729 22.6896 22.9248 22.4232 22.9999L22.074 22.996Z" fill="#757575"/>
<path d="M0.00175732 9.90714C0.00175732 7.57415 -0.00219665 5.24116 0.00175732 2.90816C0.00458158 1.50612 0.910043 0.38449 2.27416 0.0687508C2.50163 0.0198654 2.73396 -0.00308791 2.96667 0.000332885C7.23809 0.000332885 11.5095 0.000332885 15.7809 0.000332885C17.4794 0.000332885 18.7362 1.25039 18.7385 2.93676C18.7415 5.7472 18.7415 8.55726 18.7385 11.3669C18.7385 13.0657 17.48 14.3095 15.7657 14.3107C12.3573 14.3107 8.9494 14.3107 5.54183 14.3107C5.3942 14.3036 5.24945 14.3529 5.1374 14.4486C3.89698 15.4839 2.6528 16.5154 1.40485 17.5432C1.27268 17.6554 1.14389 17.7709 0.983471 17.8371C0.887571 17.8759 0.784224 17.8933 0.68079 17.8879C0.577357 17.8826 0.476383 17.8547 0.385063 17.8062C0.293744 17.7576 0.214325 17.6897 0.152465 17.6072C0.0906053 17.5248 0.0478259 17.4298 0.0271764 17.329C0.00671534 17.2192 -0.0016186 17.1075 0.00232272 16.9959C0.00119302 14.6333 0.00100418 12.2704 0.00175732 9.90714ZM1.44326 15.6477C2.46903 14.7986 3.4564 13.986 4.43698 13.166C4.65801 12.9743 4.94336 12.8716 5.23681 12.8783C8.72685 12.8832 12.2173 12.8841 15.708 12.8812C16.7078 12.8812 17.2987 12.2923 17.2987 11.2952C17.2987 8.53782 17.2987 5.78047 17.2987 3.02313C17.2987 2.01366 16.7084 1.43266 15.69 1.43266H3.05705C2.02506 1.43266 1.44326 2.01254 1.44326 3.04051C1.44326 7.15316 1.44326 11.2669 1.44326 15.3818V15.6477Z" fill="#757575"/>
<path d="M9.39308 4.26048C10.8301 4.26048 12.2671 4.26048 13.7036 4.26048C14.2613 4.26048 14.6229 4.84066 14.4284 5.41351C14.3811 5.56466 14.2971 5.69646 14.1865 5.79276C14.0759 5.88906 13.9437 5.94568 13.806 5.95567C13.7298 5.96195 13.6534 5.96351 13.5771 5.96034C10.7717 5.96034 7.96637 5.96034 5.16098 5.96034C5.05467 5.96632 4.94811 5.95984 4.84291 5.941C4.6658 5.89945 4.5083 5.78252 4.4011 5.61299C4.29391 5.44347 4.24469 5.23349 4.26304 5.02397C4.28139 4.81445 4.366 4.62041 4.50037 4.47964C4.63475 4.33887 4.80927 4.26145 4.98993 4.26248C5.89436 4.25448 6.79936 4.26249 7.70379 4.25915L9.39308 4.26048Z" fill="#757575"/>
<path d="M8.09759 8.5173C7.08511 8.5173 6.07264 8.5173 5.06016 8.5173C4.74766 8.5173 4.50593 8.3723 4.35598 8.06226C4.28751 7.93078 4.25417 7.78024 4.25991 7.62836C4.26565 7.47648 4.31022 7.32959 4.38837 7.20498C4.45497 7.08253 4.54949 6.98191 4.66233 6.91337C4.77517 6.84482 4.90229 6.8108 5.03077 6.81476C7.07012 6.81476 9.11087 6.81476 11.153 6.81476C11.2548 6.81328 11.3559 6.83451 11.4502 6.87721C11.5445 6.91991 11.6302 6.9832 11.7022 7.06337C11.7743 7.14353 11.8312 7.23895 11.8696 7.34399C11.908 7.44903 11.9271 7.56157 11.9259 7.67498C11.9246 7.78839 11.903 7.90038 11.8623 8.00435C11.8216 8.10831 11.7627 8.20216 11.6889 8.28034C11.6152 8.35853 11.5281 8.41948 11.4329 8.4596C11.3376 8.49972 11.2362 8.5182 11.1344 8.51396C10.1225 8.52131 9.11007 8.51663 8.09759 8.5173Z" fill="#757575"/>
</svg>
