<svg width="23" height="23" viewBox="0 0 23 23" fill="none" xmlns="http://www.w3.org/2000/svg">
<path d="M3.52371 22.2489L3.47612 22.2282C3.21119 22.1133 3.02721 21.9438 2.91584 21.7233C2.80833 21.5104 2.77971 21.2718 2.78065 21.0359M3.52371 22.2489L3.03065 21.0369M3.52371 22.2489L3.57558 22.2489M3.52371 22.2489L3.57558 22.2489M2.78065 21.0359L3.03065 21.0369M2.78065 21.0359C2.78065 21.036 2.78065 21.036 2.78065 21.0361L3.03065 21.0369M2.78065 21.0359C2.78669 19.3129 2.78712 17.5915 2.78755 15.8695C2.78789 14.4725 2.78824 13.0751 2.79158 11.6761M3.03065 21.0369C3.03669 19.3142 3.03712 17.5914 3.03755 15.8686C3.03789 14.4688 3.03824 13.0689 3.0416 11.6689H2.84331C2.84542 11.6701 2.84744 11.6711 2.84936 11.672C2.85801 11.676 2.86303 11.6768 2.86179 11.6765C2.86044 11.6763 2.85478 11.6753 2.84317 11.6749C2.83167 11.6745 2.81636 11.6747 2.79621 11.6758L2.79615 11.6758C2.79463 11.6759 2.79311 11.676 2.79158 11.6761M2.79158 11.6761C2.79159 11.6736 2.7916 11.6711 2.7916 11.6686C2.7916 11.6491 2.79091 11.6343 2.7899 11.6233C2.78887 11.6121 2.78769 11.6068 2.78743 11.6058C2.7872 11.6049 2.78838 11.61 2.79293 11.6186C2.79294 11.6186 2.79296 11.6186 2.79297 11.6187C2.79298 11.6187 2.79299 11.6187 2.79301 11.6187C2.79791 11.6279 2.80573 11.6391 2.81716 11.6499C2.82587 11.6581 2.83467 11.6641 2.84244 11.6684L13.0928 21.0943C13.0905 21.3376 13.1297 21.5722 13.2498 21.7759C13.3724 21.984 13.564 22.1339 13.8176 22.2329L13.8614 22.25H13.9085H19.3964H19.4379L19.4772 22.2366C19.745 22.1452 19.9446 21.9962 20.0715 21.7846C20.1949 21.579 20.2335 21.3406 20.2335 21.0982L20.2335 21.0974C20.2264 18.6986 20.2272 16.2998 20.2279 13.9008C20.2281 13.1727 20.2283 12.4445 20.2283 11.7163C20.2289 11.7046 20.2294 11.6929 20.2297 11.6811C20.3922 11.6824 20.5555 11.6816 20.7172 11.6809C20.8142 11.6805 20.9107 11.6801 21.006 11.6801L21.0078 11.6801C21.0313 11.6799 21.0587 11.6805 21.0891 11.6812C21.212 11.6839 21.3831 11.6877 21.5386 11.6459C21.8828 11.5553 22.1434 11.2925 22.2241 10.9612C22.3066 10.6226 22.1939 10.2494 21.8699 9.95177C18.6807 7.01004 15.4927 4.0683 12.3058 1.12656C12.0622 0.900852 11.8012 0.75 11.5075 0.75C11.2138 0.75 10.9524 0.900912 10.7082 1.12668C9.61942 2.13309 8.53007 3.13931 7.44013 4.14535L7.44007 4.14541L1.13448 9.96997M2.79158 11.6761C2.62789 11.6851 2.46556 11.685 2.30905 11.6836C2.27719 11.6833 2.24567 11.683 2.21441 11.6826C2.08842 11.6812 1.96674 11.6799 1.84457 11.6822L1.83975 11.4323L1.84556 11.6822C1.63894 11.687 1.43606 11.6545 1.25629 11.5593C1.07272 11.4621 0.930838 11.3088 0.835996 11.1037L1.06292 10.9988L0.836186 11.1041C0.745157 10.9081 0.724203 10.7022 0.783003 10.4984C0.840208 10.3002 0.966778 10.1247 1.13448 9.96997M1.13448 9.96997L1.13435 9.97009L1.30398 10.1537L1.13448 9.96997ZM3.57558 22.2489L9.06353 22.25L9.1082 22.25M3.57558 22.2489L9.1082 22.25M9.1082 22.25L9.15011 22.2345M9.1082 22.25L9.15011 22.2345M9.15011 22.2345C9.39892 22.1428 9.60919 22.0297 9.74557 21.8337M9.15011 22.2345L9.74557 21.8337M2.3772 10.4757H2.82707C3.18992 10.4757 3.50895 10.5389 3.73142 10.7497C3.95747 10.9638 4.02633 11.2747 4.02633 11.6248C4.02633 14.7667 4.02518 17.9085 4.0229 21.0504C5.57653 21.0433 7.13015 21.0433 8.68378 21.0505C8.67854 19.59 8.67926 18.1297 8.67998 16.6702C8.68012 16.3776 8.68026 16.085 8.68036 15.7925L2.3772 10.4757ZM2.3772 10.4757C5.42137 7.66908 8.46284 4.8595 11.5016 2.04697L11.5026 2.046C11.5033 2.04533 11.5041 2.04467 11.5048 2.04401L2.3772 10.4757ZM9.74557 21.8337C9.88187 21.6379 9.91508 21.4013 9.91508 21.1358L9.74557 21.8337ZM11.5081 2.04706C14.5481 4.85799 17.5894 7.66718 20.6319 10.4746H20.126H20.1257C19.7904 10.4749 19.492 10.548 19.2796 10.7514C19.0648 10.957 18.9862 11.249 18.9861 11.5771C18.9823 14.7342 18.9838 17.8916 18.9907 21.0495C17.4361 21.0422 15.8819 21.0421 14.3281 21.0494C14.3321 19.2997 14.3321 17.5522 14.3321 15.8012V15.7975C14.3321 15.47 14.2556 15.1778 14.0401 14.9729C13.8274 14.7705 13.5281 14.7003 13.1916 14.7003L9.80465 14.7003L9.80441 14.7003C9.47429 14.7006 9.18 14.774 8.97024 14.976C8.75849 15.18 8.68037 15.4688 8.68036 15.7924L11.5081 2.04706Z" fill="#757575" stroke="#757575" stroke-width="0.5"/>
</svg>
