<svg width="20" height="24" viewBox="0 0 20 24" fill="none" xmlns="http://www.w3.org/2000/svg">
<path d="M17.5 2.56918H10.8333V0.856392C10.8333 0.629263 10.7455 0.411436 10.5893 0.250831C10.433 0.0902267 10.221 0 10 0C9.77899 0 9.56702 0.0902267 9.41074 0.250831C9.25446 0.411436 9.16667 0.629263 9.16667 0.856392V2.56918H2.5C1.83696 2.56918 1.20107 2.83986 0.732233 3.32167C0.263392 3.80348 0 4.45696 0 5.13835V15.4151C0 16.0964 0.263392 16.7499 0.732233 17.2317C1.20107 17.7136 1.83696 17.9842 2.5 17.9842H6.06417L3.44333 22.6944C3.38843 22.792 3.3528 22.8997 3.3385 23.0115C3.3242 23.1232 3.3315 23.2368 3.35999 23.3456C3.38848 23.4544 3.4376 23.5564 3.50453 23.6457C3.57145 23.735 3.65487 23.8098 3.75 23.8659C3.84494 23.9224 3.94979 23.959 4.05853 23.9737C4.16726 23.9884 4.27776 23.9809 4.38367 23.9516C4.48958 23.9223 4.58882 23.8718 4.67571 23.803C4.7626 23.7343 4.83542 23.6485 4.89 23.5508L7.98333 17.9842H9.16667V23.1226C9.16667 23.3497 9.25446 23.5675 9.41074 23.7281C9.56702 23.8888 9.77899 23.979 10 23.979C10.221 23.979 10.433 23.8888 10.5893 23.7281C10.7455 23.5675 10.8333 23.3497 10.8333 23.1226V17.9842H12.0167L15.11 23.5508C15.1628 23.6512 15.2346 23.7398 15.3213 23.8113C15.4079 23.8828 15.5075 23.9358 15.6144 23.9671C15.7212 23.9984 15.833 24.0075 15.9433 23.9938C16.0536 23.9801 16.1601 23.9438 16.2566 23.8872C16.353 23.8305 16.4375 23.7546 16.505 23.664C16.5725 23.5733 16.6217 23.4696 16.6496 23.3591C16.6776 23.2487 16.6838 23.1335 16.6678 23.0205C16.6518 22.9076 16.6141 22.799 16.5567 22.7012L13.9358 17.9842H17.5C18.163 17.9842 18.7989 17.7136 19.2678 17.2317C19.7366 16.7499 20 16.0964 20 15.4151V5.13835C20 4.45696 19.7366 3.80348 19.2678 3.32167C18.7989 2.83986 18.163 2.56918 17.5 2.56918ZM11.6667 16.2714V14.5587H15V16.2714H11.6667ZM18.3333 15.4151C18.3333 15.6422 18.2455 15.86 18.0893 16.0206C17.933 16.1812 17.721 16.2714 17.5 16.2714H16.6667V14.5587C16.6667 14.1044 16.4911 13.6688 16.1785 13.3475C15.8659 13.0263 15.442 12.8459 15 12.8459H11.6667C11.2246 12.8459 10.8007 13.0263 10.4882 13.3475C10.1756 13.6688 10 14.1044 10 14.5587V16.2714H2.5C2.27899 16.2714 2.06702 16.1812 1.91074 16.0206C1.75446 15.86 1.66667 15.6422 1.66667 15.4151V5.13835C1.66667 4.91122 1.75446 4.6934 1.91074 4.53279C2.06702 4.37219 2.27899 4.28196 2.5 4.28196H17.5C17.721 4.28196 17.933 4.37219 18.0893 4.53279C18.2455 4.6934 18.3333 4.91122 18.3333 5.13835V15.4151Z" fill="#A52A0E"/>
</svg>
