<svg width="24" height="24" viewBox="0 0 24 24" fill="none" xmlns="http://www.w3.org/2000/svg">
<path fill-rule="evenodd" clip-rule="evenodd" d="M10.4698 13.4697C10.7627 13.1768 11.2376 13.1768 11.5305 13.4697C11.693 13.6322 11.8859 13.7611 12.0982 13.849C12.3105 13.937 12.5381 13.9823 12.7679 13.9823C12.9977 13.9823 13.2253 13.937 13.4376 13.8491C13.6499 13.7611 13.8428 13.6322 14.0053 13.4697C14.1678 13.3072 14.2967 13.1143 14.3847 12.902C14.4726 12.6897 14.5179 12.4621 14.5179 12.2323C14.5179 12.0025 14.4727 11.7749 14.3847 11.5626C14.2968 11.3503 14.1679 11.1574 14.0054 10.9948C13.7125 10.7019 13.7125 10.2271 14.0054 9.93419C14.2983 9.6413 14.7732 9.64131 15.0661 9.93421C15.3678 10.236 15.6072 10.5943 15.7705 10.9886C15.9339 11.3829 16.0179 11.8055 16.0179 12.2323C16.0179 12.6591 15.9338 13.0817 15.7705 13.476C15.6072 13.8703 15.3678 14.2286 15.066 14.5304C14.7642 14.8322 14.4059 15.0716 14.0116 15.2349C13.6173 15.3982 13.1946 15.4823 12.7679 15.4823C12.3411 15.4823 11.9184 15.3982 11.5241 15.2348C11.1298 15.0715 10.7716 14.8321 10.4698 14.5303C10.1769 14.2374 10.1769 13.7625 10.4698 13.4697Z" fill="#666666"/>
<path fill-rule="evenodd" clip-rule="evenodd" d="M12.0001 6.7C8.34669 6.7 5.49689 8.78686 3.019 11.8386C2.94235 11.933 2.9424 12.067 3.01894 12.1613C3.71227 13.0152 4.43705 13.796 5.20219 14.4772C5.49095 14.7342 5.51666 15.1767 5.25961 15.4654C5.00255 15.7542 4.56009 15.7799 4.27132 15.5229C3.43835 14.7814 2.66209 13.9429 1.93209 13.0438C1.43791 12.4352 1.43807 11.5647 1.93215 10.9562C4.52554 7.76214 7.73351 5.3 12.0001 5.3C12.3867 5.3 12.7001 5.6134 12.7001 6C12.7001 6.3866 12.3867 6.7 12.0001 6.7ZM16.085 6.85956C16.2667 6.51829 16.6906 6.38888 17.0318 6.57052C18.9584 7.59592 20.6086 9.15881 22.068 10.9562C22.5622 11.5648 22.5621 12.4353 22.068 13.0439C19.4746 16.2379 16.2666 18.7 12.0001 18.7C10.3358 18.7 8.82255 18.3238 7.44013 17.6671C7.09093 17.5012 6.94233 17.0836 7.10822 16.7344C7.2741 16.3852 7.69166 16.2366 8.04086 16.4025C9.24652 16.9752 10.5554 17.3 12.0001 17.3C15.6534 17.3 18.5032 15.2132 20.9811 12.1614C21.0577 12.067 21.0577 11.933 20.9812 11.8386C19.5897 10.1249 18.0774 8.71295 16.3741 7.80637C16.0328 7.62473 15.9034 7.20083 16.085 6.85956Z" fill="#666666"/>
<path fill-rule="evenodd" clip-rule="evenodd" d="M20.6406 2.57372C20.9398 2.86017 20.9501 3.33493 20.6637 3.63413L3.54181 21.5182C3.25537 21.8174 2.7806 21.8278 2.4814 21.5413C2.1822 21.2549 2.17187 20.7801 2.45832 20.4809L19.5802 2.59681C19.8666 2.29761 20.3414 2.28728 20.6406 2.57372Z" fill="#666666"/>
</svg>
