<svg width="25" height="24" viewBox="0 0 25 24" fill="none" xmlns="http://www.w3.org/2000/svg">
<path d="M12.002 0.75C9.77653 0.75 7.60108 1.4098 5.75071 2.64597C3.90033 3.88213 2.45814 5.63914 1.60651 7.69481C0.754875 9.75048 0.532049 12.0125 0.966208 14.1948C1.40037 16.3771 2.47201 18.3816 4.04562 19.955C5.61924 21.5283 7.62414 22.5998 9.80681 23.0338C11.9895 23.4679 14.2519 23.2451 16.3079 22.3936C18.3639 21.5422 20.1212 20.1002 21.3576 18.2502C22.594 16.4001 23.2539 14.225 23.2539 12C23.2505 9.01735 22.064 6.15783 19.9546 4.04878C17.8451 1.93972 14.9851 0.753375 12.002 0.75ZM12.002 21.75C10.4529 21.75 8.83115 19.7535 8.02627 16.5H15.9776C15.1728 19.7535 13.551 21.75 12.002 21.75ZM7.72171 15C7.42766 13.0108 7.42766 10.9892 7.72171 9H16.2822C16.431 9.99304 16.5047 10.9959 16.5027 12C16.5047 13.0041 16.431 14.007 16.2822 15H7.72171ZM2.25026 12C2.25081 10.9812 2.41181 9.96876 2.72735 9H6.21545C5.9294 10.9898 5.9294 13.0102 6.21545 15H2.72735C2.41181 14.0312 2.25081 13.0188 2.25026 12ZM12.002 2.25C13.551 2.25 15.1728 4.2465 15.9776 7.5H8.02627C8.83115 4.2465 10.4529 2.25 12.002 2.25ZM17.7885 9H21.2766C21.9125 10.9495 21.9125 13.0505 21.2766 15H17.7885C17.9307 14.0063 18.0024 13.0038 18.003 12C18.0024 10.9962 17.9307 9.99368 17.7885 9ZM20.6442 7.5H17.5184C17.1846 5.86876 16.5301 4.32006 15.5928 2.94375C17.7668 3.8106 19.5587 5.42683 20.6442 7.5ZM8.41108 2.94375C7.47385 4.32006 6.81932 5.86876 6.4855 7.5H3.35971C4.44524 5.42683 6.2371 3.8106 8.41108 2.94375ZM3.35971 16.5H6.4855C6.81932 18.1312 7.47385 19.6799 8.41108 21.0563C6.2371 20.1894 4.44524 18.5732 3.35971 16.5ZM15.5928 21.0563C16.5301 19.6799 17.1846 18.1312 17.5184 16.5H20.6442C19.5587 18.5732 17.7668 20.1894 15.5928 21.0563Z" fill="black"/>
</svg>
