<svg width="24" height="24" viewBox="0 0 24 24" fill="none" xmlns="http://www.w3.org/2000/svg">
<path fill-rule="evenodd" clip-rule="evenodd" d="M12 6.69999C8.34666 6.69999 5.49686 8.78684 3.01897 11.8386C2.94238 11.9329 2.94238 12.067 3.01897 12.1614C5.49686 15.2131 8.34666 17.3 12 17.3C15.6534 17.3 18.5032 15.2131 20.9811 12.1614C21.0577 12.067 21.0577 11.9329 20.9811 11.8386C18.5032 8.78684 15.6534 6.69999 12 6.69999ZM1.93212 10.9561C4.52551 7.76212 7.73348 5.29999 12 5.29999C16.2666 5.29999 19.4746 7.76212 22.068 10.9561C22.5621 11.5647 22.5621 12.4353 22.068 13.0438C19.4746 16.2379 16.2666 18.7 12 18.7C7.73348 18.7 4.52551 16.2379 1.93212 13.0438C1.43799 12.4353 1.43799 11.5647 1.93212 10.9561Z" fill="#666666"/>
<path fill-rule="evenodd" clip-rule="evenodd" d="M12 10.2C11.0059 10.2 10.2 11.0059 10.2 12C10.2 12.9941 11.0059 13.8 12 13.8C12.9942 13.8 13.8 12.9941 13.8 12C13.8 11.0059 12.9942 10.2 12 10.2ZM8.80005 12C8.80005 10.2327 10.2327 8.79999 12 8.79999C13.7674 8.79999 15.2 10.2327 15.2 12C15.2 13.7673 13.7674 15.2 12 15.2C10.2327 15.2 8.80005 13.7673 8.80005 12Z" fill="#666666"/>
</svg>
