<svg width="20" height="20" viewBox="0 0 20 20" fill="none" xmlns="http://www.w3.org/2000/svg">
<g clip-path="url(#clip0_292_15738)">
<path d="M18.1273 2.4078C15.6347 -0.0845006 11.5786 -0.0845006 9.08556 2.4078L1.33525 10.1567C-0.445181 11.937 -0.445064 14.8338 1.33548 16.614C2.22583 17.5042 3.39498 17.9492 4.56458 17.9491C5.73388 17.949 6.90365 17.504 7.79384 16.614L14.8981 9.51078C15.4156 8.99337 15.7007 8.3054 15.7008 7.57366C15.7008 6.84187 15.4158 6.15394 14.8982 5.63638C13.8297 4.56824 12.0913 4.56828 11.0231 5.63657L6.3772 10.2815C6.02052 10.6381 6.02052 11.2163 6.37712 11.573C6.73376 11.9297 7.31208 11.9296 7.6688 11.573L12.3147 6.92799C12.6709 6.57192 13.2502 6.57184 13.6064 6.92791C13.7789 7.10038 13.874 7.32971 13.874 7.57362C13.874 7.81752 13.779 8.04678 13.6064 8.21932L6.50216 15.3225C5.43376 16.3906 3.69548 16.3907 2.62716 15.3225C1.55884 14.2543 1.55876 12.5163 2.62697 11.4481L10.3772 3.69925C12.1579 1.91894 15.0552 1.91894 16.8356 3.69925C17.6982 4.5616 18.1733 5.70824 18.1733 6.92783C18.1733 8.14742 17.6982 9.29406 16.8356 10.1565L9.08544 17.9055C8.7288 18.2621 8.7288 18.8403 9.08552 19.197C9.26388 19.3753 9.49763 19.4644 9.73134 19.4644C9.96509 19.4644 10.1988 19.3752 10.3772 19.197L18.1272 11.448C19.3349 10.2407 19.9999 8.63538 20 6.92787C20 5.22039 19.3349 3.61513 18.1273 2.4078Z" fill="black"/>
</g>
<defs>
<clipPath id="clip0_292_15738">
<rect width="20" height="19.9965" fill="white" transform="translate(0 0.00341797)"/>
</clipPath>
</defs>
</svg>
