<svg width="16" height="16" viewBox="0 0 16 16" fill="none" xmlns="http://www.w3.org/2000/svg">
<path d="M13.0002 1.71278H8.55572V0.570928C8.55572 0.419509 8.49719 0.274291 8.393 0.167221C8.28881 0.0601511 8.14751 0 8.00016 0C7.85282 0 7.71151 0.0601511 7.60733 0.167221C7.50314 0.274291 7.44461 0.419509 7.44461 0.570928V1.71278H3.00016C2.55814 1.71278 2.13421 1.89324 1.82165 2.21445C1.50909 2.53566 1.3335 2.97131 1.3335 3.42557V10.2767C1.3335 10.731 1.50909 11.1666 1.82165 11.4878C2.13421 11.809 2.55814 11.9895 3.00016 11.9895H5.37627L3.62905 15.1296C3.59245 15.1946 3.5687 15.2665 3.55916 15.341C3.54963 15.4155 3.5545 15.4912 3.57349 15.5637C3.59249 15.6363 3.62523 15.7043 3.66985 15.7638C3.71446 15.8233 3.77008 15.8732 3.8335 15.9106C3.89679 15.9482 3.96669 15.9726 4.03918 15.9824C4.11167 15.9922 4.18533 15.9872 4.25594 15.9677C4.32655 15.9482 4.39271 15.9146 4.45064 15.8687C4.50856 15.8228 4.55711 15.7657 4.5935 15.7005L6.65572 11.9895H7.44461V15.4151C7.44461 15.5665 7.50314 15.7117 7.60733 15.8188C7.71151 15.9258 7.85282 15.986 8.00016 15.986C8.14751 15.986 8.28881 15.9258 8.393 15.8188C8.49719 15.7117 8.55572 15.5665 8.55572 15.4151V11.9895H9.34461L11.4068 15.7005C11.442 15.7675 11.4899 15.8265 11.5477 15.8742C11.6054 15.9219 11.6718 15.9572 11.7431 15.9781C11.8143 15.999 11.8888 16.005 11.9624 15.9959C12.0359 15.9867 12.1069 15.9625 12.1712 15.9248C12.2355 15.887 12.2918 15.8364 12.3368 15.776C12.3818 15.7155 12.4146 15.6464 12.4332 15.5728C12.4519 15.4991 12.456 15.4224 12.4454 15.347C12.4347 15.2717 12.4095 15.1993 12.3713 15.1342L10.6241 11.9895H13.0002C13.4422 11.9895 13.8661 11.809 14.1787 11.4878C14.4912 11.1666 14.6668 10.731 14.6668 10.2767V3.42557C14.6668 2.97131 14.4912 2.53566 14.1787 2.21445C13.8661 1.89324 13.4422 1.71278 13.0002 1.71278ZM9.11127 10.8476V9.70578H11.3335V10.8476H9.11127ZM13.5557 10.2767C13.5557 10.4281 13.4972 10.5733 13.393 10.6804C13.2888 10.7875 13.1475 10.8476 13.0002 10.8476H12.4446V9.70578C12.4446 9.40294 12.3275 9.1125 12.1192 8.89836C11.9108 8.68422 11.6282 8.56392 11.3335 8.56392H9.11127C8.81659 8.56392 8.53397 8.68422 8.3256 8.89836C8.11723 9.1125 8.00016 9.40294 8.00016 9.70578V10.8476H3.00016C2.85282 10.8476 2.71151 10.7875 2.60733 10.6804C2.50314 10.5733 2.44461 10.4281 2.44461 10.2767V3.42557C2.44461 3.27415 2.50314 3.12893 2.60733 3.02186C2.71151 2.91479 2.85282 2.85464 3.00016 2.85464H13.0002C13.1475 2.85464 13.2888 2.91479 13.393 3.02186C13.4972 3.12893 13.5557 3.27415 13.5557 3.42557V10.2767Z" fill="#666666"/>
</svg>
