<svg width="18" height="18" viewBox="0 0 18 18" fill="none" xmlns="http://www.w3.org/2000/svg">
<rect x="0.75" y="0.75" width="16.5" height="16.5" rx="2.25" stroke="#1240C0" stroke-width="1.5"/>
<path d="M5 9.12515V8.87506C5.005 8.86984 5.01251 8.86526 5.01438 8.85922C5.13236 8.47156 5.36687 8.2965 5.77021 8.2965C6.58524 8.2965 7.40006 8.2965 8.21509 8.29837C8.28305 8.29837 8.29951 8.28357 8.29847 8.21501C8.29569 7.38135 8.2952 6.54831 8.29701 5.7159C8.29701 5.37244 8.51526 5.09712 8.84314 5.0173C8.85919 5.01355 8.88129 5.02313 8.89046 5H9.0937C9.11934 5.02751 9.15623 5.01584 9.18708 5.02459C9.49558 5.11192 9.70215 5.3839 9.70278 5.7159C9.70403 6.54956 9.70354 7.3826 9.70132 8.21501C9.70132 8.28357 9.71716 8.29837 9.7847 8.29837C10.6185 8.29573 11.4517 8.29525 12.2842 8.29691C12.6244 8.29691 12.9012 8.51387 12.9814 8.83546C12.986 8.8538 12.9748 8.8786 13 8.89027V9.12515C12.995 9.13036 12.9875 9.13474 12.9854 9.14099C12.8639 9.53385 12.6342 9.70371 12.2221 9.70371C11.4091 9.70371 10.5962 9.70371 9.7847 9.70184C9.71633 9.70184 9.70132 9.71726 9.70132 9.7852C9.7041 10.6157 9.70459 11.4462 9.70278 12.2768C9.70278 12.5969 9.51976 12.8604 9.23065 12.9604C9.18583 12.976 9.13935 12.9869 9.0937 13H8.86003C8.85794 12.9831 8.84335 12.9825 8.83168 12.9792C8.46168 12.852 8.29743 12.6232 8.29743 12.2337C8.29743 11.4194 8.29743 10.6051 8.2991 9.79083C8.2991 9.72268 8.28596 9.70142 8.21259 9.70184C7.37755 9.70475 6.54237 9.70517 5.70705 9.70309C5.55901 9.70386 5.41449 9.65796 5.29403 9.5719C5.17357 9.48585 5.0833 9.36402 5.03606 9.22373C5.0248 9.1908 5.02731 9.15246 5 9.12515Z" fill="#1240C0"/>
</svg>
