<svg width="24" height="25" viewBox="0 0 24 25" fill="none" xmlns="http://www.w3.org/2000/svg">
<path d="M18.662 10.3462L7.66201 4.14022C7.30277 3.93493 6.89557 3.82845 6.48183 3.83161C6.06809 3.83477 5.66256 3.94747 5.30651 4.15822C4.95962 4.35662 4.67143 4.64329 4.4712 4.98912C4.27098 5.33495 4.16585 5.72761 4.16651 6.12722V18.5392C4.16585 18.9388 4.27098 19.3315 4.4712 19.6773C4.67143 20.0232 4.95962 20.3098 5.30651 20.5082C5.6626 20.7189 6.06811 20.8315 6.48183 20.8347C6.89555 20.8378 7.30274 20.7314 7.66201 20.5262L18.662 14.3202C19.0168 14.1237 19.3125 13.8358 19.5183 13.4864C19.7242 13.137 19.8328 12.7388 19.8328 12.3332C19.8328 11.9277 19.7242 11.5295 19.5183 11.1801C19.3125 10.8307 19.0168 10.5427 18.662 10.3462Z" fill="#A52A0E"/>
</svg>
