<svg width="20" height="20" viewBox="0 0 20 20" fill="none" xmlns="http://www.w3.org/2000/svg">
<path d="M17.8622 2.15482C17.4453 1.72708 16.8284 1.56772 16.2532 1.73546L2.83935 5.6355C2.23243 5.80408 1.80225 6.28802 1.68637 6.9028C1.56799 7.52848 1.98149 8.32275 2.52172 8.65488L6.71593 11.2323C7.14611 11.4965 7.70134 11.4302 8.05732 11.0712L12.8601 6.23938C13.1019 5.98776 13.502 5.98776 13.7438 6.23938C13.9856 6.4826 13.9856 6.8768 13.7438 7.12842L8.93267 11.9611C8.57586 12.3192 8.50917 12.877 8.77177 13.3098L11.3345 17.5453C11.6346 18.0485 12.1515 18.3337 12.7184 18.3337C12.7851 18.3337 12.8601 18.3337 12.9268 18.3253C13.5771 18.2414 14.094 17.7969 14.2857 17.1679L18.2623 3.77355C18.4374 3.20322 18.279 2.58257 17.8622 2.15482Z" fill="#A52A0E"/>
</svg>
