<svg width="22" height="18" viewBox="0 0 22 18" fill="none" xmlns="http://www.w3.org/2000/svg">
<path fill-rule="evenodd" clip-rule="evenodd" d="M0.666666 1C0.666666 0.447715 1.11438 0 1.66667 0H13.6667C14.219 0 14.6667 0.447715 14.6667 1C14.6667 1.55228 14.219 2 13.6667 2H1.66667C1.11438 2 0.666666 1.55228 0.666666 1Z" fill="#DA281D"/>
<path fill-rule="evenodd" clip-rule="evenodd" d="M0.666666 17C0.666666 16.4477 1.11438 16 1.66667 16H9.66667C10.219 16 10.6667 16.4477 10.6667 17C10.6667 17.5523 10.219 18 9.66667 18H1.66667C1.11438 18 0.666666 17.5523 0.666666 17Z" fill="#DA281D"/>
<path fill-rule="evenodd" clip-rule="evenodd" d="M0.666666 9C0.666666 8.44772 1.11438 8 1.66667 8H20.3333C20.8856 8 21.3333 8.44772 21.3333 9C21.3333 9.55228 20.8856 10 20.3333 10H1.66667C1.11438 10 0.666666 9.55228 0.666666 9Z" fill="#DA281D"/>
</svg>
