<svg width="62" height="40" viewBox="0 0 62 40" fill="none" xmlns="http://www.w3.org/2000/svg">
<path d="M33.9721 22.2291C34.3823 22.2291 34.7152 21.8962 34.7152 21.4861C34.7152 21.076 34.3823 20.743 33.9721 20.743C33.562 20.743 33.2291 21.076 33.2291 21.4861C33.2291 21.8962 33.562 22.2291 33.9721 22.2291Z" fill="black"/>
<path d="M17.6253 22.2291C18.0355 22.2291 18.3684 21.8962 18.3684 21.4861C18.3684 21.076 18.0355 20.743 17.6253 20.743C17.2152 20.743 16.8823 21.076 16.8823 21.4861C16.8823 21.8962 17.2152 22.2291 17.6253 22.2291Z" fill="black"/>
<path d="M12.7213 10.3405C13.1317 10.3405 13.4643 10.0079 13.4643 9.5975V2.46434H20.5975C21.0079 2.46434 21.3405 2.13172 21.3405 1.72131C21.3405 1.3109 21.0079 0.978271 20.5975 0.978271H12.7213C12.3109 0.978271 11.9783 1.3109 11.9783 1.72131V9.5975C11.9783 10.0079 12.3109 10.3405 12.7213 10.3405Z" fill="black"/>
<path d="M21.3405 38.2788C21.3405 37.8684 21.0079 37.5357 20.5975 37.5357H13.4643V30.4026C13.4643 29.9922 13.1317 29.6595 12.7213 29.6595C12.3109 29.6595 11.9783 29.9922 11.9783 30.4026V38.2788C11.9783 38.6892 12.3109 39.0218 12.7213 39.0218H20.5975C21.0079 39.0218 21.3405 38.6892 21.3405 38.2788Z" fill="black"/>
<path d="M49.2787 29.6595C48.8683 29.6595 48.5356 29.9922 48.5356 30.4026V37.5357H41.4025C40.9921 37.5357 40.6595 37.8684 40.6595 38.2788C40.6595 38.6892 40.9921 39.0218 41.4025 39.0218H49.2787C49.6891 39.0218 50.0217 38.6892 50.0217 38.2788V30.4026C50.0217 29.9922 49.6891 29.6595 49.2787 29.6595Z" fill="black"/>
<path d="M49.2787 0.978271H41.4025C40.9921 0.978271 40.6595 1.3109 40.6595 1.72131C40.6595 2.13172 40.9921 2.46434 41.4025 2.46434H48.5356V9.5975C48.5356 10.0079 48.8683 10.3405 49.2787 10.3405C49.6891 10.3405 50.0217 10.0079 50.0217 9.5975V1.72131C50.0217 1.3109 49.6891 0.978271 49.2787 0.978271Z" fill="black"/>
<path d="M16.8823 33.3747C16.8823 33.7851 17.2149 34.1177 17.6253 34.1177H25.0557C25.4661 34.1177 25.7987 33.7851 25.7987 33.3747V25.9443C25.7987 25.5339 25.4661 25.2013 25.0557 25.2013H17.6253C17.2149 25.2013 16.8823 25.5339 16.8823 25.9443V33.3747ZM18.3684 26.6874H24.3127V32.6317H18.3684V26.6874Z" fill="black"/>
<path d="M25.0557 5.88232H17.6253C17.2149 5.88232 16.8823 6.21495 16.8823 6.62536V14.0557C16.8823 14.4661 17.2149 14.7988 17.6253 14.7988H25.0557C25.4661 14.7988 25.7987 14.4661 25.7987 14.0557V6.62536C25.7987 6.21495 25.4661 5.88232 25.0557 5.88232ZM24.3127 13.3127H18.3684V7.3684H24.3127V13.3127Z" fill="black"/>
<path d="M45.1177 6.62536C45.1177 6.21495 44.7851 5.88232 44.3747 5.88232H36.9443C36.5339 5.88232 36.2013 6.21495 36.2013 6.62536V14.0557C36.2013 14.4661 36.5339 14.7988 36.9443 14.7988H44.3747C44.7851 14.7988 45.1177 14.4661 45.1177 14.0557V6.62536ZM43.6316 13.3127H37.6873V7.3684H43.6316V13.3127Z" fill="black"/>
<path d="M45.1177 33.3747V25.9443C45.1177 25.5339 44.7851 25.2013 44.3747 25.2013H36.9443C36.5339 25.2013 36.2013 25.5339 36.2013 25.9443V33.3747C36.2013 33.7851 36.5339 34.1177 36.9443 34.1177H44.3747C44.7851 34.1177 45.1177 33.7851 45.1177 33.3747ZM43.6316 32.6317H37.6873V26.6874H43.6316V32.6317Z" fill="black"/>
<path d="M22.0836 28.1735H20.5975C20.1871 28.1735 19.8545 28.5061 19.8545 28.9165V30.4026C19.8545 30.813 20.1871 31.1456 20.5975 31.1456H22.0836C22.494 31.1456 22.8266 30.813 22.8266 30.4026V28.9165C22.8266 28.5061 22.494 28.1735 22.0836 28.1735Z" fill="black"/>
<path d="M20.5975 11.8266H22.0836C22.494 11.8266 22.8266 11.494 22.8266 11.0836V9.59753C22.8266 9.18712 22.494 8.85449 22.0836 8.85449H20.5975C20.1871 8.85449 19.8545 9.18712 19.8545 9.59753V11.0836C19.8545 11.494 20.1871 11.8266 20.5975 11.8266Z" fill="black"/>
<path d="M39.9164 11.8266H41.4025C41.8129 11.8266 42.1455 11.494 42.1455 11.0836V9.59753C42.1455 9.18712 41.8129 8.85449 41.4025 8.85449H39.9164C39.506 8.85449 39.1734 9.18712 39.1734 9.59753V11.0836C39.1734 11.494 39.506 11.8266 39.9164 11.8266Z" fill="black"/>
<path d="M39.9164 31.1456H41.4025C41.8129 31.1456 42.1455 30.813 42.1455 30.4026V28.9165C42.1455 28.5061 41.8129 28.1735 41.4025 28.1735H39.9164C39.506 28.1735 39.1734 28.5061 39.1734 28.9165V30.4026C39.1734 30.813 39.506 31.1456 39.9164 31.1456Z" fill="black"/>
<path d="M19.8545 21.4861C19.8545 21.8965 20.1871 22.2291 20.5975 22.2291H30.257V25.9443C30.257 26.3547 30.5896 26.6873 31 26.6873C31.4104 26.6873 31.743 26.3547 31.743 25.9443V21.4861C31.743 21.0757 31.4104 20.743 31 20.743H20.5975C20.1871 20.743 19.8545 21.0757 19.8545 21.4861Z" fill="black"/>
<path d="M25.0557 19.2569C25.4661 19.2569 25.7987 18.9243 25.7987 18.5139C25.7987 18.1035 25.4661 17.7709 25.0557 17.7709H17.6253C17.2149 17.7709 16.8823 18.1035 16.8823 18.5139C16.8823 18.9243 17.2149 19.2569 17.6253 19.2569H25.0557Z" fill="black"/>
<path d="M28.0279 19.2569H31C31.4104 19.2569 31.743 18.9243 31.743 18.5139C31.743 18.1035 31.4104 17.7709 31 17.7709H28.0279C27.6174 17.7709 27.2848 18.1035 27.2848 18.5139C27.2848 18.9243 27.6174 19.2569 28.0279 19.2569Z" fill="black"/>
<path d="M28.0279 5.88232C27.6174 5.88232 27.2848 6.21495 27.2848 6.62536V14.0557C27.2848 14.4661 27.6174 14.7988 28.0279 14.7988H33.2291V18.5139C33.2291 18.9244 33.5617 19.257 33.9722 19.257H36.9443C37.3547 19.257 37.6873 18.9244 37.6873 18.5139C37.6873 18.1035 37.3547 17.7709 36.9443 17.7709H34.7152V14.0557C34.7152 13.6453 34.3826 13.3127 33.9722 13.3127H28.7709V6.62536C28.7709 6.21495 28.4383 5.88232 28.0279 5.88232Z" fill="black"/>
<path d="M44.3747 17.7709H39.9164C39.506 17.7709 39.1734 18.1035 39.1734 18.5139C39.1734 18.9243 39.506 19.2569 39.9164 19.2569H44.3747C44.7851 19.2569 45.1177 18.9243 45.1177 18.5139C45.1177 18.1035 44.7851 17.7709 44.3747 17.7709Z" fill="black"/>
<path d="M44.3747 20.743H36.9443C36.5339 20.743 36.2013 21.0757 36.2013 21.4861C36.2013 21.8965 36.5339 22.2291 36.9443 22.2291H44.3747C44.7851 22.2291 45.1177 21.8965 45.1177 21.4861C45.1177 21.0757 44.7851 20.743 44.3747 20.743Z" fill="black"/>
<path d="M31 28.1735H28.0279C27.6174 28.1735 27.2848 28.5061 27.2848 28.9165V33.3747C27.2848 33.7851 27.6174 34.1178 28.0279 34.1178C28.4383 34.1178 28.7709 33.7851 28.7709 33.3747V29.6595H31C31.4104 29.6595 31.743 29.3269 31.743 28.9165C31.743 28.5061 31.4104 28.1735 31 28.1735Z" fill="black"/>
<path d="M33.2291 32.6316H31C30.5896 32.6316 30.257 32.9643 30.257 33.3747C30.257 33.7851 30.5896 34.1177 31 34.1177H33.9721C34.3826 34.1177 34.7152 33.7851 34.7152 33.3747V24.4582C34.7152 24.0478 34.3826 23.7152 33.9721 23.7152C33.5617 23.7152 33.2291 24.0478 33.2291 24.4582V32.6316Z" fill="black"/>
<path d="M33.9721 11.8266C34.3826 11.8266 34.7152 11.494 34.7152 11.0836V6.62536C34.7152 6.21495 34.3826 5.88232 33.9721 5.88232C33.5617 5.88232 33.2291 6.21495 33.2291 6.62536V10.3405H31C30.5896 10.3405 30.257 10.6732 30.257 11.0836C30.257 11.494 30.5896 11.8266 31 11.8266H33.9721Z" fill="black"/>
<g filter="url(#filter0_d_2_8358)">
<path fill-rule="evenodd" clip-rule="evenodd" d="M6 20.2717C6 19.5213 6.69956 18.913 7.5625 18.913H54.4375C55.3004 18.913 56 19.5213 56 20.2717C56 21.022 55.3004 21.6304 54.4375 21.6304H7.5625C6.69956 21.6304 6 21.022 6 20.2717Z" fill="#DA281D"/>
<path d="M7.5625 18.5205C6.5361 18.5205 5.60754 19.2548 5.60754 20.2717C5.60754 21.2885 6.5361 22.0228 7.5625 22.0228H54.4375C55.4639 22.0228 56.3925 21.2885 56.3925 20.2717C56.3925 19.2548 55.4639 18.5205 54.4375 18.5205H7.5625Z" stroke="white" stroke-width="0.784921" stroke-linecap="round"/>
</g>
<defs>
<filter id="filter0_d_2_8358" x="0.505564" y="13.4185" width="60.9889" height="13.7063" filterUnits="userSpaceOnUse" color-interpolation-filters="sRGB">
<feFlood flood-opacity="0" result="BackgroundImageFix"/>
<feColorMatrix in="SourceAlpha" type="matrix" values="0 0 0 0 0 0 0 0 0 0 0 0 0 0 0 0 0 0 127 0" result="hardAlpha"/>
<feOffset/>
<feGaussianBlur stdDeviation="2.35476"/>
<feComposite in2="hardAlpha" operator="out"/>
<feColorMatrix type="matrix" values="0 0 0 0 0.854902 0 0 0 0 0.156863 0 0 0 0 0.113725 0 0 0 1 0"/>
<feBlend mode="normal" in2="BackgroundImageFix" result="effect1_dropShadow_2_8358"/>
<feBlend mode="normal" in="SourceGraphic" in2="effect1_dropShadow_2_8358" result="shape"/>
</filter>
</defs>
</svg>
