<svg width="26" height="31" viewBox="0 0 26 31" fill="none" xmlns="http://www.w3.org/2000/svg">
<path d="M12.4911 14.6656C14.4323 14.6656 16.113 13.9694 17.4866 12.5957C18.8598 11.2223 19.5563 9.54183 19.5563 7.60041C19.5563 5.65966 18.86 3.97896 17.4864 2.60508C16.1127 1.23187 14.432 0.535645 12.4911 0.535645C10.5496 0.535645 8.86915 1.23187 7.49572 2.6053C6.12229 3.97873 5.42584 5.65943 5.42584 7.60041C5.42584 9.54183 6.12229 11.2225 7.49572 12.596C8.8696 13.9692 10.5503 14.6656 12.4911 14.6656ZM8.71138 3.82073C9.76523 2.76688 11.0015 2.25461 12.4911 2.25461C13.9804 2.25461 15.2169 2.76688 16.271 3.82073C17.3248 4.87481 17.8373 6.11128 17.8373 7.60041C17.8373 9.08999 17.3248 10.3262 16.271 11.3803C15.2169 12.4344 13.9804 12.9467 12.4911 12.9467C11.0019 12.9467 9.76568 12.4342 8.71138 11.3803C7.6573 10.3265 7.14481 9.08999 7.14481 7.60041C7.14481 6.11128 7.6573 4.87481 8.71138 3.82073Z" fill="black" stroke="black" stroke-width="0.4"/>
<path d="M24.8533 23.0916C24.8137 22.52 24.7336 21.8965 24.6156 21.2381C24.4966 20.5748 24.3433 19.9477 24.1597 19.3745C23.97 18.7822 23.7124 18.1972 23.3935 17.6365C23.0629 17.0547 22.6744 16.548 22.2385 16.1311C21.7826 15.6949 21.2244 15.3442 20.579 15.0884C19.9358 14.834 19.223 14.7051 18.4606 14.7051C18.1611 14.7051 17.8715 14.8279 17.3123 15.192C16.9681 15.4165 16.5655 15.6761 16.1161 15.9632C15.7318 16.2081 15.2113 16.4375 14.5683 16.6451C13.941 16.8481 13.3041 16.9511 12.6752 16.9511C12.0468 16.9511 11.4099 16.8481 10.7822 16.6451C10.1399 16.4377 9.6191 16.2083 9.23552 15.9635C8.79039 15.679 8.38756 15.4194 8.03821 15.1918C7.4794 14.8277 7.18981 14.7048 6.89037 14.7048C6.12767 14.7048 5.41511 14.834 4.77215 15.0886C4.12717 15.344 3.5688 15.6947 3.11248 16.1313C2.67653 16.5485 2.28802 17.0549 1.9577 17.6365C1.63924 18.1972 1.38143 18.7819 1.19165 19.3748C1.00836 19.9479 0.855061 20.5748 0.736002 21.2381C0.617838 21.8956 0.537943 22.5193 0.498332 23.0922C0.459391 23.6524 0.439697 24.2354 0.439697 24.8244C0.439697 26.3556 0.926452 27.5952 1.88631 28.5094C2.83431 29.4115 4.08845 29.869 5.61406 29.869H19.7382C21.2634 29.869 22.5175 29.4115 23.4658 28.5094C24.4258 27.5959 24.9126 26.3558 24.9126 24.8242C24.9124 24.2331 24.8924 23.6501 24.8533 23.0916ZM22.2805 27.264C21.6541 27.8602 20.8225 28.15 19.738 28.15H5.61406C4.52933 28.15 3.69771 27.8602 3.07153 27.2642C2.45721 26.6794 2.15867 25.8812 2.15867 24.8244C2.15867 24.2748 2.17679 23.7321 2.21305 23.2111C2.24841 22.6999 2.3207 22.1384 2.42789 21.5418C2.53375 20.9525 2.66847 20.3995 2.82871 19.8989C2.98246 19.4189 3.19215 18.9435 3.4522 18.4856C3.70039 18.0492 3.98595 17.6748 4.30106 17.3731C4.5958 17.0909 4.9673 16.86 5.40504 16.6868C5.80988 16.5265 6.26486 16.4388 6.75878 16.4256C6.81898 16.4576 6.92617 16.5187 7.09984 16.6319C7.45321 16.8622 7.86052 17.125 8.3108 17.4125C8.81836 17.7361 9.47229 18.0284 10.2536 18.2806C11.0523 18.5389 11.8669 18.67 12.6755 18.67C13.484 18.67 14.2989 18.5389 15.0972 18.2809C15.8791 18.0282 16.5328 17.7361 17.041 17.4121C17.5018 17.1176 17.8977 16.8624 18.2511 16.6319C18.4248 16.5189 18.532 16.4576 18.5922 16.4256C19.0863 16.4388 19.5413 16.5265 19.9464 16.6868C20.3839 16.86 20.7554 17.0912 21.0501 17.3731C21.3652 17.6746 21.6508 18.049 21.899 18.4859C22.1592 18.9435 22.3692 19.4191 22.5227 19.8987C22.6831 20.4 22.8181 20.9527 22.9237 21.5416C23.0307 22.1393 23.1032 22.701 23.1386 23.2113V23.2117C23.175 23.7307 23.1934 24.2732 23.1936 24.8244C23.1934 25.8814 22.8949 26.6794 22.2805 27.264Z" fill="black" stroke="black" stroke-width="0.4"/>
</svg>
